<?xml version="1.0" encoding="UTF-8"?>
<svg version="1.1" xmlns="http://www.w3.org/2000/svg" width="736" height="589">
<path d="M0 0 C242.88 0 485.76 0 736 0 C736 194.37 736 388.74 736 589 C493.12 589 250.24 589 0 589 C0 394.63 0 200.26 0 0 Z M341.7265625 158.9296875 C339.028008 163.72847446 339.578495 168.41339062 339.75 173.8125 C339.76804687 174.88693359 339.78609375 175.96136719 339.8046875 177.06835938 C339.85170608 179.71315465 339.9174084 182.35611589 340 185 C339.21625 184.505 338.4325 184.01 337.625 183.5 C335.21447673 181.83462035 335.21447673 181.83462035 333 182 C333 183.98 333 185.96 333 188 C331.948125 188.04125 330.89625 188.0825 329.8125 188.125 C324.77499181 189.28114942 323.88774831 190.83824509 321 195 C319.85647084 197.28705831 319.89665561 198.59264762 319.9375 201.125 C319.958125 202.40375 319.97875 203.6825 320 205 C319.01 205 318.02 205 317 205 C316.62875 204.1028125 316.62875 204.1028125 316.25 203.1875 C314.78034996 200.61561243 313.56909841 199.46805623 311 198 C308.33238236 197.74875174 308.33238236 197.74875174 306 198 C306.495 201.96 306.495 201.96 307 206 C303.10821206 204.87342981 299.82122144 203.35040457 296.3125 201.375 C290.80115665 198.59450245 286.08779432 197.91673072 280 199 C269.54414229 202.64212377 260.98255753 211.98877273 255 221 C254.5875 221.53882813 254.175 222.07765625 253.75 222.6328125 C250.64333663 227.09864109 250.25240463 231.5431843 250.39453125 236.91015625 C251.46288766 242.36222026 254.509518 245.76155757 258 250 C253.38 249.01 248.76 248.02 244 247 C244 249.31 244 251.62 244 254 C242.69189453 256.26782227 242.69189453 256.26782227 241.0078125 258.25390625 C237.23379342 263.48501138 237.41452441 267.67763844 237.875 273.9375 C238.38284565 281.69025012 238.08509497 288.1523408 234 295 C230.75 297.125 230.75 297.125 228 298 C226.94834805 306.16620047 226.94834805 306.16620047 229.6875 313.66796875 C231.21706262 315.29578452 232.78989478 316.8837756 234.3984375 318.43359375 C237.3024013 321.2983148 239.66460772 324.33914798 242.0625 327.625 C243.361875 329.39875 244.66125 331.1725 246 333 C237.75 332.34 229.5 331.68 221 331 C221 333.31 221 335.62 221 338 C222.02738281 338.50789062 223.05476563 339.01578125 224.11328125 339.5390625 C248.46516105 351.61632235 248.46516105 351.61632235 253 356 C253.33 356.99 253.66 357.98 254 359 C252.39431334 358.71682074 250.79047953 358.42312209 249.1875 358.125 C247.84751953 357.88136719 247.84751953 357.88136719 246.48046875 357.6328125 C244 357 244 357 241 355 C238.79817888 354.77642176 236.58671478 354.64200609 234.375 354.5625 C228.35838368 354.22546963 223.58377606 353.21425602 218 351 C215.43378482 355.81165346 215.43962868 360.68865449 216 366 C216.65421972 368.11014223 217.45559687 370.08375241 218.32421875 372.11328125 C219.40510766 375.13102312 219.31513718 377.84862825 219 381 C217 383 217 383 213.6875 383.625 C209.30228147 385.26016623 208.26166624 386.67031981 206.06640625 390.640625 C203.64543641 395.99690993 202 401.10572127 202 407 C209.77716619 406.4727345 216.63564256 404.50049376 224 402 C225.22847656 401.60039062 226.45695312 401.20078125 227.72265625 400.7890625 C250.39192112 393.10451731 269.96025523 378.51928168 287 362 C287.55929199 361.46648926 288.11858398 360.93297852 288.69482422 360.38330078 C296.7698092 352.66472893 304.00288168 344.65115986 310.703125 335.71582031 C312.00048064 333.9993641 313.32320663 332.30603583 314.65625 330.6171875 C318.64493109 325.54501394 322.40375237 320.47054982 325.75 314.9375 C329.07670155 309.54730197 331.92637155 307.02454282 338 305 C340.39407306 304.73367023 342.79031047 304.4866426 345.1875 304.25 C357.51156818 302.85097572 368.82730596 298.67538583 380.23046875 293.91796875 C383 293 383 293 385.75390625 293.015625 C386.86572266 293.00789063 386.86572266 293.00789063 388 293 C389.68301166 290.73895848 389.68301166 290.73895848 390.69921875 288.92578125 C394.10335265 283.88602746 398.95966081 279.36022613 404 276 C404 275.34 404 274.68 404 274 C404.66 274 405.32 274 406 274 C407.59063037 270.36427345 408.44945393 266.96145858 409.046875 263.0625 C410.54855315 259.81296695 413.03773228 257.86950529 416 256 C419.453125 254.8125 419.453125 254.8125 423.25 254 C424.65818521 253.68510975 426.06571523 253.36727855 427.47265625 253.046875 C428.20629395 252.88251953 428.93993164 252.71816406 429.69580078 252.54882812 C434.50133526 251.40421682 439.2356 249.9754018 443.97167969 248.57421875 C447.73674612 247.4941185 451.07351951 246.72119665 455 247 C454.67 248.98 454.34 250.96 454 253 C453.01 253 452.02 253 451 253 C451 253.99 451 254.98 451 256 C450.01 256.309375 450.01 256.309375 449 256.625 C444.88393737 258.51152871 441.5412297 261.20567979 438 264 C438.33 265.32 438.66 266.64 439 268 C441.97 268.66 444.94 269.32 448 270 C447.67 271.65 447.34 273.3 447 275 C444.69 275 442.38 275 440 275 C440.0309375 276.3921875 440.0309375 276.3921875 440.0625 277.8125 C440 281 440 281 439 284 C438.00097656 283.91621094 437.00195312 283.83242188 435.97265625 283.74609375 C434.68230469 283.64425781 433.39195312 283.54242188 432.0625 283.4375 C430.77472656 283.33308594 429.48695313 283.22867188 428.16015625 283.12109375 C427.11730469 283.08113281 426.07445312 283.04117188 425 283 C423.66254888 284.15150577 423.66254888 284.15150577 423.375 287.1875 C423.58124649 291.00825625 423.58124649 291.00825625 425.97265625 292.69140625 C427.59864999 293.71957028 429.25301441 294.7043398 430.93359375 295.640625 C433 297 433 297 434 300 C431.69 300.33 429.38 300.66 427 301 C427.33 302.65 427.66 304.3 428 306 C427.67 305.67 427.34 305.34 427 305 C427 304.67 427 304.34 427 304 C425.02 304 423.04 304 421 304 C420.01 299.545 420.01 299.545 419 295 C415.27074558 293.57758676 415.27074558 293.57758676 413.25 295 C411.3957981 297.96672303 411.80669644 300.58497041 412 304 C411.34 304.33 410.68 304.66 410 305 C410 304.34 410 303.68 410 303 C406.04030824 304.67229701 402.9838799 307.36304994 399.75 310.125 C398.91855469 310.82689453 398.91855469 310.82689453 398.0703125 311.54296875 C396.71052674 312.69175328 395.35484835 313.84539653 394 315 C395.62059974 318.54506192 397.72629052 321.59021257 400 324.75 C400.70125 325.73484375 401.4025 326.7196875 402.125 327.734375 C402.74375 328.48203125 403.3625 329.2296875 404 330 C404.66 330 405.32 330 406 330 C406 330.66 406 331.32 406 332 C404.02 332.33 402.04 332.66 400 333 C399.95875 334.258125 399.9175 335.51625 399.875 336.8125 C399.85179687 337.52019531 399.82859375 338.22789062 399.8046875 338.95703125 C399.86745538 341.31359719 399.86745538 341.31359719 402 344 C402.99 344.33 403.98 344.66 405 345 C406.38671875 346.84765625 406.38671875 346.84765625 407.6875 349.0625 C408.12449219 349.79597656 408.56148437 350.52945313 409.01171875 351.28515625 C409.33785156 351.85105469 409.66398438 352.41695312 410 353 C408.68 353 407.36 353 406 353 C406.33 355.64 406.66 358.28 407 361 C402.34396551 359.73017241 399.84867042 357.0736933 396.6484375 353.65625 C394.9001396 351.79011315 394.9001396 351.79011315 392 350 C391.734375 348.00390625 391.734375 348.00390625 391.75 345.5625 C391.19135119 337.69581272 386.54463873 331.0662067 380.875 325.75 C378.16920108 323.74888377 378.16920108 323.74888377 375.25 324.0625 C372.8521195 324.8940473 372.8521195 324.8940473 371 327 C371 327.99 371 328.98 371 330 C370.29875 329.67 369.5975 329.34 368.875 329 C364.92301458 327.62539638 362.01865212 327.16160819 358.0625 328.8046875 C355.24619029 330.45132019 353.35897129 331.77612475 352.41796875 334.984375 C351.90567385 345.6856463 358.11186889 353.80554147 363.98925781 362.10229492 C371.096319 372.24751665 374.1816651 382.60135714 374 395 C373.73896484 394.51233154 373.47792969 394.02466309 373.20898438 393.5222168 C368.52603079 384.81754103 363.85502181 376.36931648 357.8515625 368.48828125 C355.98457457 365.97927004 354.3309514 363.40989883 352.6875 360.75 C348.19279197 353.54801434 343.07400554 346.79898392 338 340 C337.67 340.66 337.34 341.32 337 342 C337.99496008 344.47817837 337.99496008 344.47817837 339.4375 347.125 C339.91058594 348.03507813 340.38367188 348.94515625 340.87109375 349.8828125 C341.24363281 350.58148438 341.61617187 351.28015625 342 352 C340.91481889 351.08552154 339.83195262 350.16829593 338.75 349.25 C338.10933594 348.70730469 337.46867188 348.16460937 336.80859375 347.60546875 C335 346 335 346 332.8125 343.5625 C332.214375 343.046875 331.61625 342.53125 331 342 C328.78141747 342.13641377 328.78141747 342.13641377 327 343 C326.13681607 345.40925582 325.85990677 346.61138553 326.7409668 349.05541992 C327.13968994 349.77318604 327.53841309 350.49095215 327.94921875 351.23046875 C328.38556641 352.03419922 328.82191406 352.83792969 329.27148438 353.66601562 C329.73876953 354.49810547 330.20605469 355.33019531 330.6875 356.1875 C334.09026964 362.36144607 337.21842336 368.51834015 340 375 C336.37 370.71 332.74 366.42 329 362 C327.89459074 364.78918149 327.89459074 364.78918149 328 367 C327.52949219 366.16855469 327.05898438 365.33710938 326.57421875 364.48046875 C325.95160156 363.39378906 325.32898438 362.30710937 324.6875 361.1875 C324.07261719 360.10855469 323.45773437 359.02960938 322.82421875 357.91796875 C321.34608744 355.55359169 320.07489444 353.81952282 318 352 C314.52964148 353.43029961 312.96036258 355.08086883 310.8125 358.125 C304.65919079 366.24736816 297.13373794 371.70227821 288.68334961 377.20092773 C282.81416483 381.04564108 277.06202995 385.11687756 272 390 C272 390.66 272 391.32 272 392 C271.01 392.33 270.02 392.66 269 393 C266.91130771 395.18498638 265.21200755 397.68126293 263.4375 400.125 C262.94314453 400.77726563 262.44878906 401.42953125 261.93945312 402.1015625 C258.84822721 406.31801137 257.12192791 409.88825747 256 415 C257.05574219 415.41958984 257.05574219 415.41958984 258.1328125 415.84765625 C263.82834933 418.16007395 269.2719555 420.65078199 274.6875 423.5625 C285.38136618 428.99825258 297.07632094 431.24294101 309 432 C309 430.02 309 428.04 309 426 C314.73745359 429.73601629 314.73745359 429.73601629 317.140625 432.15234375 C321.21249272 434.78348232 324.36439749 434.26373018 329.0625 433.8125 C330.26616211 433.72645508 330.26616211 433.72645508 331.49414062 433.63867188 C335.11052703 433.35956487 338.49201425 432.95019224 342 432 C342.33 430.02 342.66 428.04 343 426 C348.21523251 428.086093 351.42384319 431.19267129 355.265625 435.2578125 C358.30812854 438.31402101 360.54802978 438.16187823 364.75 438.1875 C376.44670931 438.07143563 387.06073075 436.12727008 398 432 C398 427.65337304 397.74191122 427.24275548 395.125 424.125 C392.54370229 420.87402599 391.02028821 418.08115284 390 414 C391.12956998 414.76412087 392.25348978 415.53659803 393.375 416.3125 C394.00148438 416.74175781 394.62796875 417.17101562 395.2734375 417.61328125 C397 419 397 419 399 422 C400.93076478 422.41428346 400.93076478 422.41428346 403.1328125 422.29296875 C403.93847656 422.28330078 404.74414062 422.27363281 405.57421875 422.26367188 C406.83685547 422.2259668 406.83685547 422.2259668 408.125 422.1875 C409.39923828 422.16719727 409.39923828 422.16719727 410.69921875 422.14648438 C412.79974837 422.11108219 414.89995293 422.05727401 417 422 C416.690625 421.236875 416.38125 420.47375 416.0625 419.6875 C415.32106407 417.81210323 414.63771783 415.91315348 414 414 C418.875 416.75 418.875 416.75 420 419 C421.32 419 422.64 419 424 419 C423.48923856 416.70157352 422.86166565 414.67450741 421.9375 412.5 C421 410 421 410 421 406 C425.59798878 407.83114652 427.41899054 411.12677495 430.12109375 415.1015625 C431.87786854 417.27966049 431.87786854 417.27966049 434.72265625 417.2734375 C435.47417969 417.18320312 436.22570312 417.09296875 437 417 C437 413.09567131 436.31626692 410.61973402 435 407 C436.69270833 408.04166667 438.38541667 409.08333333 440.078125 410.125 C442.25479385 411.27624023 442.25479385 411.27624023 446 411 C448.47731518 408.93352652 448.47731518 408.93352652 450.875 406.25 C456.17345277 400.66154316 456.17345277 400.66154316 459.625 398.8125 C460.40875 398.214375 461.1925 397.61625 462 397 C462.04092937 394.66702567 462.04241723 392.33294775 462 390 C463.64004187 388.95690823 465.31518111 387.96910427 467 387 C469.53009028 384.86945419 471.91562038 382.59089329 474.3125 380.3125 C474.95767578 379.70599609 475.60285156 379.09949219 476.26757812 378.47460938 C477.84882134 376.98706946 479.42493187 375.4940768 481 374 C479.7256632 371.25266554 478.35887569 369.05999109 476.35546875 366.79296875 C475.58686523 365.9122168 475.58686523 365.9122168 474.80273438 365.01367188 C474.26970703 364.41103516 473.73667969 363.80839844 473.1875 363.1875 C469.16237529 358.6250286 465.4665683 354.00441745 462 349 C462.33 348.67 462.66 348.34 463 348 C463.67546875 348.62648438 464.3509375 349.25296875 465.046875 349.8984375 C466.38492188 351.12433594 466.38492188 351.12433594 467.75 352.375 C469.07257813 353.59316406 469.07257813 353.59316406 470.421875 354.8359375 C472.59802521 356.6625848 474.40820119 357.89787994 477 359 C476.5359375 357.6078125 476.5359375 357.6078125 476.0625 356.1875 C475.375 354.125 474.6875 352.0625 474 350 C474.72445313 350.66128906 475.44890625 351.32257813 476.1953125 352.00390625 C477.64550781 353.27041016 477.64550781 353.27041016 479.125 354.5625 C480.07632812 355.40941406 481.02765625 356.25632812 482.0078125 357.12890625 C484.88997131 359.33700424 484.88997131 359.33700424 488.3671875 358.77734375 C489.67042969 358.39255859 489.67042969 358.39255859 491 358 C490.01 355.03 489.02 352.06 488 349 C488.886875 349.495 489.77375 349.99 490.6875 350.5 C494.74631945 352.44770686 494.74631945 352.44770686 499 352 C505.08057045 347.0460327 507.40060745 340.36700285 508.4375 332.8125 C507.86352193 329.122641 506.14397018 327.02678143 504 324 C502.75 320.625 502.75 320.625 502 318 C503.0725 318.04125 504.145 318.0825 505.25 318.125 C509.49742368 318.02465112 509.49742368 318.02465112 513 316 C514.51523945 311.73777807 513.97893616 307.32595724 513.83984375 302.875 C514.00583448 299.89526397 514.63264085 298.58335013 516 296 C517.01066035 291.24980747 517.14848197 286.58583481 517.17578125 281.75 C517.19896781 280.15623662 517.22308466 278.56248656 517.24804688 276.96875 C517.28318091 274.48037603 517.31254035 271.9924985 517.32592773 269.50390625 C517.34144971 267.08534431 517.38166049 264.66818767 517.42578125 262.25 C517.42387283 261.51233398 517.42196442 260.77466797 517.41999817 260.01464844 C517.54129988 254.85886254 518.90279981 252.05489946 522 248 C523.34574855 243.73846292 523.07508251 239.42986798 523 235 C517.13012049 233.0433735 510.67613596 233.86428164 504.56640625 234.296875 C503.80215332 234.3498877 503.03790039 234.40290039 502.25048828 234.45751953 C500.72075976 234.56828518 499.19170921 234.68889747 497.66357422 234.81982422 C495.77982471 234.95803761 493.88877146 234.98745002 492 235 C491.34 234.34 490.68 233.68 490 233 C492.93446827 229.55958892 495.72334134 227.50292461 499.75 225.4375 C505.02703652 222.66992378 509.87848707 219.47710693 514.75 216.0625 C515.45866211 215.57257568 516.16732422 215.08265137 516.89746094 214.57788086 C524.02395457 209.5231393 531.44873244 203.70523416 534 195 C534.29372859 191.63415923 534.24838407 188.36698409 534 185 C532.31197266 184.85304688 532.31197266 184.85304688 530.58984375 184.703125 C519.22602127 183.62909381 507.99797042 182.18231727 497.50390625 177.41015625 C493.84434849 175.93735764 491.04731028 175.54398842 487.125 175.375 C481.71089156 175.09156911 476.38149651 174.64949096 471 174 C470.67 175.98 470.34 177.96 470 180 C469.6596875 179.50371094 469.319375 179.00742188 468.96875 178.49609375 C463.25051441 170.48143908 457.53206709 164.89366322 448 162 C447.67 162.99 447.34 163.98 447 165 C437.595 165.99 437.595 165.99 428 167 C427.67 165.35 427.34 163.7 427 162 C426.01 161.67 425.02 161.34 424 161 C424 160.34 424 159.68 424 159 C422.9275 158.855625 421.855 158.71125 420.75 158.5625 C417 158 417 158 415.03662109 157.49389648 C412.89898874 156.97550398 410.85408648 156.73078818 408.6640625 156.53515625 C407.84679687 156.45716797 407.02953125 156.37917969 406.1875 156.29882812 C404.48726756 156.14202315 402.78674353 155.98834654 401.0859375 155.83789062 C396.42045088 155.38674687 392.43946811 154.57070634 388 153 C385.2036766 152.36219878 382.38805259 151.86466252 379.5625 151.375 C378.83740234 151.2409375 378.11230469 151.106875 377.36523438 150.96875 C364.70139042 148.73863911 351.80502393 150.37511714 341.7265625 158.9296875 Z " fill="#FDFDFD" transform="translate(0,0)"/>
<path d="M0 0 C0.33 0.33 0.66 0.66 1 1 C2.46676309 1.12084287 3.93875811 1.17956072 5.41015625 1.2109375 C6.77237305 1.25347656 6.77237305 1.25347656 8.16210938 1.296875 C10.06818203 1.34821702 11.97445423 1.39269558 13.88085938 1.4296875 C20.75708712 1.66163334 26.75785675 2.30009674 32.2421875 6.8671875 C37.78628571 13.68457143 37.78628571 13.68457143 39 18 C39.33 16.35 39.66 14.7 40 13 C45.94 13 51.88 13 58 13 C58.33 11.35 58.66 9.7 59 8 C63.98931259 9.31918309 66.92421986 11.31165223 70.6875 14.8125 C72.08548828 16.09060547 72.08548828 16.09060547 73.51171875 17.39453125 C75.8213332 19.81291875 77.42496999 22.06591399 79 25 C79.33 23.02 79.66 21.04 80 19 C81.19625 19.144375 82.3925 19.28875 83.625 19.4375 C90.06737585 20.1590461 96.53295884 20.56763736 103 21 C103 21.66 103 22.32 103 23 C111.63969922 27.11985657 119.4813567 29.16271193 129 30 C129 30.66 129 31.32 129 32 C132.63 32 136.26 32 140 32 C141.03242397 45.78477191 141.03242397 45.78477191 137.25 50.375 C135.703125 51.9609375 135.703125 51.9609375 134 53 C132.68 53 131.36 53 130 53 C130 53.66 130 54.32 130 55 C128.35 54.67 126.7 54.34 125 54 C125 55.32 125 56.64 125 58 C124.34 58 123.68 58 123 58 C123 58.66 123 59.32 123 60 C121.02 60.33 119.04 60.66 117 61 C117 61.99 117 62.98 117 64 C115.68 64 114.36 64 113 64 C112.79246094 64.59296875 112.58492188 65.1859375 112.37109375 65.796875 C110.46970602 68.8520963 108.28209068 69.70459647 105.0625 71.25 C104.00160156 71.77078125 102.94070313 72.2915625 101.84765625 72.828125 C99 74 99 74 96 74 C96 74.66 96 75.32 96 76 C92.12315913 77.19287411 89.08378077 78 85 78 C85 78.66 85 79.32 85 80 C82.35261084 81.4606285 81.10551666 82 78 82 C77.67 82.99 77.34 83.98 77 85 C74.84765625 86.02734375 74.84765625 86.02734375 72.0625 86.9375 C68.42493353 88.14653289 64.8831732 89.45740978 61.34765625 90.93359375 C55.80491657 93.17052035 50.16714205 94.68078516 44.375 96.125 C43.39015625 96.37636719 42.4053125 96.62773437 41.390625 96.88671875 C40.42382812 97.13292969 39.45703125 97.37914062 38.4609375 97.6328125 C37.52733398 97.87161133 36.59373047 98.11041016 35.63183594 98.35644531 C34.00251295 98.75485861 32.36555666 99.12471499 30.71972656 99.44824219 C25.60814005 100.48998595 22.64123475 102.28051522 19 106 C17.0249308 109.12716761 17.0249308 109.12716761 15.375 112.5625 C6.38526898 129.32001386 -9.91054358 140.11540605 -27.90429688 145.578125 C-35.47477788 147.74740126 -42.86043579 149.20785121 -50.734375 149.73828125 C-56.68511554 150.42569438 -60.06500464 153.80707049 -64 158 C-65.25684463 159.77920411 -66.46427633 161.59414809 -67.625 163.4375 C-72.33085389 170.64195924 -77.58336311 177.32036748 -83 184 C-83.42087891 184.52674316 -83.84175781 185.05348633 -84.27539062 185.59619141 C-101.00334403 206.47978993 -120.56712988 224.02870437 -144 237 C-144.96808594 237.54011719 -145.93617188 238.08023438 -146.93359375 238.63671875 C-158.95615688 244.98983463 -175.12961747 252.69351913 -189 252 C-188.6130276 246.11535081 -187.9177305 241.18707644 -185 236 C-183 235.25 -183 235.25 -181 235 C-179.97895449 234.02149805 -178.9793879 233.02019573 -178 232 C-175.6773534 230.69351129 -173.54077717 229.84692572 -171 229 C-170.94570041 227.25034642 -170.90707177 225.50020213 -170.875 223.75 C-170.85179687 222.77546875 -170.82859375 221.8009375 -170.8046875 220.796875 C-171.00613097 217.91220445 -171.69950296 216.52002928 -173 214 C-173.52187167 208.63975877 -173.10811136 203.26352895 -172 198 C-170.96875 198.144375 -169.9375 198.28875 -168.875 198.4375 C-163.69206826 199.11434082 -158.48907089 199.30475778 -153.26953125 199.5234375 C-149.7656797 200.03415421 -147.94208722 201.1121607 -145 203 C-142.80480783 203.55672814 -142.80480783 203.55672814 -140.6875 203.6875 C-138.8621875 203.8421875 -138.8621875 203.8421875 -137 204 C-139.27793359 199.16674608 -142.46090053 197.27340858 -147.0625 194.9375 C-154.4059251 191.18782389 -154.4059251 191.18782389 -156 187 C-156.66 186.67 -157.32 186.34 -158 186 C-157.49396008 183.83125748 -157.00016187 182.00032373 -156 180 C-152.83984375 179.5859375 -152.83984375 179.5859375 -148.9375 179.375 C-147.00197266 179.26285156 -147.00197266 179.26285156 -145.02734375 179.1484375 C-144.02832031 179.09945312 -143.02929688 179.05046875 -142 179 C-142.7115625 178.47148437 -143.423125 177.94296875 -144.15625 177.3984375 C-147.33506671 174.71740253 -149.86701137 171.82588813 -152.5 168.625 C-152.96019531 168.07328125 -153.42039063 167.5215625 -153.89453125 166.953125 C-154.81532329 165.84817456 -155.72987348 164.73799109 -156.63793945 163.62255859 C-157.53943694 162.54864709 -158.47602088 161.50316376 -159.44604492 160.49072266 C-161.94443356 157.81662803 -162.96702936 156.23158579 -163.48828125 152.5703125 C-163.43027344 151.43335938 -163.37226563 150.29640625 -163.3125 149.125 C-163.26738281 147.97257813 -163.22226563 146.82015625 -163.17578125 145.6328125 C-163.11777344 144.76398438 -163.05976563 143.89515625 -163 143 C-161.63875 142.566875 -161.63875 142.566875 -160.25 142.125 C-155.57206964 139.06635322 -154.43019024 135.29861831 -153 130 C-152.62497888 125.35372067 -152.99068752 120.76338947 -153.33203125 116.12304688 C-153.59572043 109.64447662 -152.53105002 106.24805624 -148.30810547 101.26782227 C-146.41707524 98.42574202 -146.41707524 98.42574202 -147 92 C-142.38 92.99 -137.76 93.98 -133 95 C-134.155 93.5975 -135.31 92.195 -136.5 90.75 C-139.97879933 85.73372724 -141.01333299 82.02021914 -140.609375 75.9453125 C-138.28219079 64.69725548 -127.98714526 54.52847996 -118.8203125 48.18359375 C-118.21960938 47.79300781 -117.61890625 47.40242188 -117 47 C-116.071875 46.38125 -115.14375 45.7625 -114.1875 45.125 C-108.53536697 43.13012952 -102.92072147 42.86858709 -97.27734375 45.0546875 C-95.5797335 45.92013586 -93.89870353 46.81909115 -92.23828125 47.75390625 C-89.59238016 49.22692972 -86.90376047 50.15943776 -84 51 C-84.495 47.04 -84.495 47.04 -85 43 C-78.64285714 43.48901099 -78.64285714 43.48901099 -75.5625 45.9375 C-74 48 -74 48 -74 50 C-73.01 50 -72.02 50 -71 50 C-71.0825 48.80375 -71.165 47.6075 -71.25 46.375 C-71.25 41.88605784 -69.90913267 39.47479736 -67 36 C-64.59560145 33.67316269 -63.60948855 33.04155604 -60.25 32.8125 C-59.13625 32.9053125 -59.13625 32.9053125 -58 33 C-58 31.02 -58 29.04 -58 27 C-57.401875 27.309375 -56.80375 27.61875 -56.1875 27.9375 C-53.91043228 29.10209704 -53.91043228 29.10209704 -51 30 C-51.02618408 29.33468262 -51.05236816 28.66936523 -51.0793457 27.98388672 C-51.1837546 24.94783465 -51.24846348 21.91216089 -51.3125 18.875 C-51.3753418 17.30492187 -51.3753418 17.30492187 -51.43945312 15.703125 C-51.57761926 6.97102512 -51.57761926 6.97102512 -48.7265625 3.40625 C-35.97001515 -7.85167717 -15.35880345 -2.98263731 0 0 Z M-7 11 C-6.77136154 14.88685386 -5.67815822 16.49532622 -2.875 19 C-1.23828125 20.51171875 -1.23828125 20.51171875 0 22 C-0.05837137 24.62671187 -0.11106326 26.11106326 -2 28 C-3.51928038 28.07179964 -5.04167482 28.08392007 -6.5625 28.0625 C-7.38878906 28.05347656 -8.21507812 28.04445312 -9.06640625 28.03515625 C-10.02353516 28.01775391 -10.02353516 28.01775391 -11 28 C-11 27.34 -11 26.68 -11 26 C-15.29 25.67 -19.58 25.34 -24 25 C-22.91696684 30.41516582 -20.94183161 34.84008263 -18.66796875 39.84375 C-18 43 -18 43 -19.73828125 45.90625 C-22 48 -22 48 -24 48 C-24 47.01 -24 46.02 -24 45 C-25.485 44.505 -25.485 44.505 -27 44 C-28.37195574 42.70644173 -29.71182656 41.37701298 -31 40 C-32.15811388 42.94729537 -32.15811388 42.94729537 -32 46 C-33.5 47.6875 -33.5 47.6875 -35 49 C-35.33 48.34 -35.66 47.68 -36 47 C-38.64 47 -41.28 47 -44 47 C-44.31100973 52.18349543 -43.99283581 55.66554814 -41 60 C-38.41585574 60.96906827 -38.41585574 60.96906827 -36 61 C-35.566875 60.236875 -35.13375 59.47375 -34.6875 58.6875 C-33.26313215 56.41906232 -31.96739903 54.7800277 -30 53 C-29.01 53.66 -28.02 54.32 -27 55 C-26.01 55 -25.02 55 -24 55 C-23.9175 55.763125 -23.835 56.52625 -23.75 57.3125 C-23.09532337 60.53132677 -22.21791853 63.25429184 -21.0625 66.3125 C-19.23132353 71.17344117 -18.00192485 75.90688201 -17 81 C-16.67 81 -16.34 81 -16 81 C-16.01571045 80.28344238 -16.0314209 79.56688477 -16.04760742 78.82861328 C-16.10981863 75.59415524 -16.14894649 72.35982281 -16.1875 69.125 C-16.21263672 67.99707031 -16.23777344 66.86914062 -16.26367188 65.70703125 C-16.27333984 64.63066406 -16.28300781 63.55429688 -16.29296875 62.4453125 C-16.3086792 61.45031738 -16.32438965 60.45532227 -16.34057617 59.43017578 C-16.22818604 58.62821777 -16.1157959 57.82625977 -16 57 C-15.01 56.34 -14.02 55.68 -13 55 C-13 55.66 -13 56.32 -13 57 C-12.34 57 -11.68 57 -11 57 C-10.505 64.92 -10.505 64.92 -10 73 C-8.68 73.33 -7.36 73.66 -6 74 C-5.34 69.71 -4.68 65.42 -4 61 C-3.16855469 63.29517578 -3.16855469 63.29517578 -2.3203125 65.63671875 C-1.58858448 67.65366137 -0.85681128 69.67058759 -0.125 71.6875 C0.23980469 72.69490234 0.60460937 73.70230469 0.98046875 74.74023438 C1.33496094 75.71669922 1.68945312 76.69316406 2.0546875 77.69921875 C2.54171143 79.04246216 2.54171143 79.04246216 3.03857422 80.4128418 C3.98497948 82.95958039 4.98006669 85.48191561 6 88 C7.10020657 84.69938028 6.97319367 82.72013899 6.6953125 79.2734375 C6.60636719 78.1596875 6.51742187 77.0459375 6.42578125 75.8984375 C6.32652344 74.73570312 6.22726562 73.57296875 6.125 72.375 C6.03347656 71.20453125 5.94195312 70.0340625 5.84765625 68.828125 C5.8984179 63.53678316 5.8984179 63.53678316 4 59 C3.76518307 56.81707226 3.58636677 54.62796826 3.4375 52.4375 C3.35371094 51.23996094 3.26992188 50.04242188 3.18359375 48.80859375 C3.12300781 47.88175781 3.06242187 46.95492187 3 46 C4.32 46 5.64 46 7 46 C7.33 46.66 7.66 47.32 8 48 C10.32156597 48.40729228 12.6568787 48.74438677 15 49 C14.34245545 35.84910894 7.81915219 22.73147827 -1 13 C-3.81509993 10.7226499 -3.81509993 10.7226499 -7 11 Z M49 34 C48.34 37.63 47.68 41.26 47 45 C46.34 45 45.68 45 45 45 C44.79375 44.4225 44.5875 43.845 44.375 43.25 C42.50249112 40.18589456 40.03041481 38.84460032 37 37 C35.75144883 38.91472781 35.75144883 38.91472781 36.55200195 40.72241211 C36.84034912 41.42116455 37.12869629 42.11991699 37.42578125 42.83984375 C39.50357549 48.74210387 39.33309497 54.36911397 39.1875 60.5625 C39.17396484 61.66658203 39.16042969 62.77066406 39.14648438 63.90820312 C39.11144815 66.60599272 39.06232591 69.30272636 39 72 C41.97 71.505 41.97 71.505 45 71 C45.99 68.03 46.98 65.06 48 62 C48.99 62 49.98 62 51 62 C51 62.99 51 63.98 51 65 C52.65 65.33 54.3 65.66 56 66 C56.41414639 54.77203116 56.52432656 43.69028663 50 34 C49.67 34 49.34 34 49 34 Z M21 35 C20.94108951 40.33467239 20.94198524 45.66534046 21 51 C21.00386719 51.83789062 21.00773438 52.67578125 21.01171875 53.5390625 C21.4357912 61.1138739 25.03744651 68.12361437 28 75 C28.33 74.34 28.66 73.68 29 73 C30.32 73.33 31.64 73.66 33 74 C35.19374296 62.48284944 35.26144402 51.25447407 29 41 C26.78741661 38.52190661 24.75862626 36.90981818 22 35 C21.67 35 21.34 35 21 35 Z M63 42 C63.20496094 42.53367188 63.40992188 43.06734375 63.62109375 43.6171875 C65.717157 49.41395572 66.62810501 54.85732066 67 61 C67.99 61.33 68.98 61.66 70 62 C70 61.34 70 60.68 70 60 C70.66 60 71.32 60 72 60 C72 59.34 72 58.68 72 58 C72.66 58 73.32 58 74 58 C74 58.66 74 59.32 74 60 C79.26915211 59.12180798 81.97099916 58.37200112 85.25 54 C87.16795701 51.29092553 87.16795701 51.29092553 87 49 C85.4188708 48.49307308 83.83498617 47.99473557 82.25 47.5 C81.36828125 47.2215625 80.4865625 46.943125 79.578125 46.65625 C76.79732471 45.83554715 76.79732471 45.83554715 73 46 C72.67 47.32 72.34 48.64 72 50 C71.731875 49.05125 71.46375 48.1025 71.1875 47.125 C70.25013412 43.74732727 70.25013412 43.74732727 67 42 C65.68 42 64.36 42 63 42 Z M-74 72 C-73.505 77.445 -73.505 77.445 -73 83 C-73.99 82.01 -74.98 81.02 -76 80 C-76.66 80 -77.32 80 -78 80 C-78 79.34 -78 78.68 -78 78 C-81.3 78 -84.6 78 -88 78 C-90.35910353 82.2637281 -90.35910353 82.2637281 -91 87 C-91.56847656 86.60167969 -92.13695312 86.20335937 -92.72265625 85.79296875 C-100.41297677 80.0085242 -100.41297677 80.0085242 -109.4375 78.3125 C-110.2109375 78.6528125 -110.2109375 78.6528125 -111 79 C-110.34 80.65 -109.68 82.3 -109 84 C-108.34 84 -107.68 84 -107 84 C-106.67 85.65 -106.34 87.3 -106 89 C-107.98 89 -109.96 89 -112 89 C-112 91.31 -112 93.62 -112 96 C-111.34 96 -110.68 96 -110 96 C-109.34 97.32 -108.68 98.64 -108 100 C-107.34 100 -106.68 100 -106 100 C-105.61328125 100.88945312 -105.61328125 100.88945312 -105.21875 101.796875 C-103.90230105 104.17660965 -102.57419218 105.50978792 -100.5 107.25 C-99.8915625 107.77078125 -99.283125 108.2915625 -98.65625 108.828125 C-97.06604179 110.19252997 -97.06604179 110.19252997 -95 110 C-94.43868519 103.54487966 -96.36536213 98.84560277 -99 93 C-98.24074219 93.30808594 -97.48148438 93.61617187 -96.69921875 93.93359375 C-94.75856917 94.7003048 -92.79203781 95.40265406 -90.8125 96.0625 C-84.98178766 98.56688085 -78.36905946 103.73270561 -75.8984375 109.62890625 C-75.45371094 110.80259766 -75.45371094 110.80259766 -75 112 C-73.00334402 113.67067133 -71.00348966 115.33752986 -69 117 C-68.0625 119.1875 -68.0625 119.1875 -68 121 C-68.495 121.99 -68.495 121.99 -69 123 C-74.625 123.25 -74.625 123.25 -78 121 C-80.62531524 120.83286431 -80.62531524 120.83286431 -83 121 C-79.05291347 130.95081289 -72.44337578 137.9114242 -63 143 C-62.34 143 -61.68 143 -61 143 C-62.59043379 137.91061189 -65.7446951 134.12543357 -69 130 C-67.35 129.34 -65.7 128.68 -64 128 C-64.33 126.35 -64.66 124.7 -65 123 C-62.03 123.495 -62.03 123.495 -59 124 C-58.34 121.03 -57.68 118.06 -57 115 C-58.32 114.34 -59.64 113.68 -61 113 C-61 112.34 -61 111.68 -61 111 C-54.96153667 116.70299315 -51.67339894 122.24714307 -49 130 C-48.67 130 -48.34 130 -48 130 C-48.16610715 121.19632088 -52.71107781 115.05252935 -58.13671875 108.3671875 C-60 106 -60 106 -61.5 102.8125 C-62.87559132 99.57991517 -62.87559132 99.57991517 -67 98 C-67 94.37 -67 90.74 -67 87 C-61.37458159 87.45003347 -58.38512875 88.68441485 -54 92 C-55.2125738 88.27566618 -56.50859979 84.62197194 -58 81 C-57.01 80.67 -56.02 80.34 -55 80 C-55.23903752 76.77299345 -56.2496989 75.73157368 -58.5 73.3125 C-63.20886147 69.61838107 -68.99978608 68.66652405 -74 72 Z M-110 128 C-109.34 131.96 -108.68 135.92 -108 140 C-110.97 139.505 -110.97 139.505 -114 139 C-114.33 137.68 -114.66 136.36 -115 135 C-119.53701494 133.54815522 -123.18061476 132.76490804 -128 133 C-128.29240794 136.09194322 -128.2622862 137.59815511 -126.5390625 140.23828125 C-125.59160156 141.26501953 -125.59160156 141.26501953 -124.625 142.3125 C-123.99851562 143.00988281 -123.37203125 143.70726562 -122.7265625 144.42578125 C-121.14309629 146.22458462 -121.14309629 146.22458462 -119 146 C-118.67 147.32 -118.34 148.64 -118 150 C-118.83144531 149.98839844 -119.66289062 149.97679687 -120.51953125 149.96484375 C-122.14955078 149.95130859 -122.14955078 149.95130859 -123.8125 149.9375 C-124.89144531 149.92589844 -125.97039062 149.91429687 -127.08203125 149.90234375 C-130.06512169 149.86375234 -130.06512169 149.86375234 -133 151 C-133 151.99 -133 152.98 -133 154 C-132.45472656 154.14695312 -131.90945313 154.29390625 -131.34765625 154.4453125 C-123.13686868 156.88749547 -115.90088607 160.75521189 -111 168 C-111.51958285 163.62065881 -112.05675742 159.31196609 -113 155 C-113.66 155 -114.32 155 -115 155 C-115 153.35 -115 151.7 -115 150 C-114.34 150 -113.68 150 -113 150 C-113 151.32 -113 152.64 -113 154 C-111.04174127 154.02694851 -109.08337774 154.04637218 -107.125 154.0625 C-106.03445313 154.07410156 -104.94390625 154.08570313 -103.8203125 154.09765625 C-101.04822454 154.19744303 -101.04822454 154.19744303 -99 153 C-99.495 149.535 -99.495 149.535 -100 146 C-100.99 146 -101.98 146 -103 146 C-103 145.34 -103 144.68 -103 144 C-103.66 143.67 -104.32 143.34 -105 143 C-104.67 142.01 -104.34 141.02 -104 140 C-104 140.99 -104 141.98 -104 143 C-103.030625 143.12375 -102.06125 143.2475 -101.0625 143.375 C-100.051875 143.58125 -99.04125 143.7875 -98 144 C-97.505 144.99 -97.505 144.99 -97 146 C-94.87423218 146.46651207 -94.87423218 146.46651207 -92.4375 146.625 C-91.61121094 146.69976562 -90.78492188 146.77453125 -89.93359375 146.8515625 C-89.29550781 146.90054688 -88.65742188 146.94953125 -88 147 C-91.2873779 138.45281745 -98.79207694 131.77564461 -107 128 C-107.99 128 -108.98 128 -110 128 Z " fill="#CF0A0B" transform="translate(391,155)"/>
<path d="M0 0 C0.1921227 5.47549707 -0.00813631 9.86308839 -2 15 C-2.99 15.33 -3.98 15.66 -5 16 C-6.55107983 19.10215967 -6.36078313 22.43850963 -6.53515625 25.8515625 C-6.57813339 26.62559418 -6.62111053 27.39962585 -6.66539001 28.19711304 C-6.80189832 30.67286944 -6.93226764 33.14890629 -7.0625 35.625 C-7.15389318 37.30210538 -7.24568503 38.97918909 -7.33789062 40.65625 C-7.56322292 44.77059598 -7.78304951 48.88520388 -8 53 C-10.62113708 53 -12.50935112 52.68707555 -15 52 C-15 51.34 -15 50.68 -15 50 C-17.64 50.33 -20.28 50.66 -23 51 C-21.84518705 56.00418944 -20.64686156 58.47470049 -17 62 C-17 63.32 -17 64.64 -17 66 C-15.35 66.33 -13.7 66.66 -12 67 C-12 70.96 -12 74.92 -12 79 C-13.65 78.67 -15.3 78.34 -17 78 C-17.33 76.68 -17.66 75.36 -18 74 C-18.67675781 73.94457031 -19.35351562 73.88914062 -20.05078125 73.83203125 C-24.1712365 72.66957169 -26.89107764 70.35012746 -30.1875 67.6875 C-31.13012695 66.95756836 -31.13012695 66.95756836 -32.09179688 66.21289062 C-35.29239512 63.66952753 -37.29343709 61.7719416 -39 58 C-41.98650805 57.3355782 -41.98650805 57.3355782 -45 57 C-45.66 56.34 -46.32 55.68 -47 55 C-47.99 55 -48.98 55 -50 55 C-49.67 55.99 -49.34 56.98 -49 58 C-50.625 59.1875 -50.625 59.1875 -53 60 C-56.25 58.625 -56.25 58.625 -59 57 C-55.89767428 63.98023288 -51.4076601 69.10768275 -46.10253906 74.48120117 C-43.39015046 77.27233929 -41.71810573 79.17027427 -41 83 C-38.69 83.33 -36.38 83.66 -34 84 C-34.33 82.02 -34.66 80.04 -35 78 C-35.66 78 -36.32 78 -37 78 C-37 77.01 -37 76.02 -37 75 C-37.66 75 -38.32 75 -39 75 C-38.67 73.68 -38.34 72.36 -38 71 C-31.31390173 73.3401344 -28.09065635 78.45651134 -24 84 C-23.3915625 84.72574219 -22.783125 85.45148438 -22.15625 86.19921875 C-17.22443638 92.49193378 -17.15610258 98.21404167 -18 106 C-18.53859576 109.68681618 -19.57847573 112.3755196 -21.6875 115.5 C-24 117 -24 117 -27.5 116.875 C-31 116 -31 116 -35 114 C-34.01 116.97 -33.02 119.94 -32 123 C-34.6328125 123.77734375 -34.6328125 123.77734375 -38 124 C-40.9921875 122.12890625 -40.9921875 122.12890625 -43.875 119.5625 C-44.84179688 118.71816406 -45.80859375 117.87382812 -46.8046875 117.00390625 C-47.89136719 116.01197266 -47.89136719 116.01197266 -49 115 C-48.67 115.99 -48.34 116.98 -48 118 C-47.33333333 120 -46.66666667 122 -46 124 C-51.54110713 120.59008792 -56.20968493 116.38579957 -61 112 C-59.53010594 116.59769187 -56.88624878 119.8094429 -53.75 123.375 C-53.01172974 124.23001099 -53.01172974 124.23001099 -52.25854492 125.10229492 C-51.28558025 126.22825255 -50.30998882 127.35194671 -49.33154297 128.47314453 C-47.64448232 130.40766548 -45.97801098 132.35941878 -44.3125 134.3125 C-43.1678125 135.6428125 -43.1678125 135.6428125 -42 137 C-43.34603045 140.03867819 -44.80424173 142.00385612 -47.2578125 144.234375 C-47.88300781 144.80800781 -48.50820313 145.38164062 -49.15234375 145.97265625 C-49.80332031 146.55917969 -50.45429688 147.14570313 -51.125 147.75 C-51.78371094 148.35199219 -52.44242188 148.95398438 -53.12109375 149.57421875 C-54.74268509 151.05480215 -56.36902454 152.52977125 -58 154 C-61.29136057 152.44664879 -63.32743851 150.86849912 -65.75 148.125 C-66.36359375 147.44695312 -66.9771875 146.76890625 -67.609375 146.0703125 C-69 144 -69 144 -69 140 C-70.32 140.33 -71.64 140.66 -73 141 C-72.88648483 142.81325551 -72.75887039 144.62563357 -72.625 146.4375 C-72.52058594 147.95150391 -72.52058594 147.95150391 -72.4140625 149.49609375 C-72.27742187 150.32238281 -72.14078125 151.14867187 -72 152 C-71.34 152.33 -70.68 152.66 -70 153 C-70 153.66 -70 154.32 -70 155 C-68.68 155.66 -67.36 156.32 -66 157 C-66 161.26649636 -66.56839395 162.63316085 -69 166 C-69.66 166 -70.32 166 -71 166 C-71.061875 166.763125 -71.12375 167.52625 -71.1875 168.3125 C-72 171 -72 171 -74.25 172.8125 C-77.14958544 174.06459371 -78.88435646 174.42103291 -82 174 C-82.66 173.34 -83.32 172.68 -84 172 C-85.98821313 171.60235737 -87.98944339 171.26224651 -90 171 C-90 172.98 -90 174.96 -90 177 C-92.5 175.6875 -92.5 175.6875 -95 174 C-95 173.01 -95 172.02 -95 171 C-96.65 170.67 -98.3 170.34 -100 170 C-100 169.34 -100 168.68 -100 168 C-100.99 168 -101.98 168 -103 168 C-103.33 171.3 -103.66 174.6 -104 178 C-105.98 177.67 -107.96 177.34 -110 177 C-110 179.64 -110 182.28 -110 185 C-114.62 185 -119.24 185 -124 185 C-124 184.34 -124 183.68 -124 183 C-124.8353125 182.8453125 -124.8353125 182.8453125 -125.6875 182.6875 C-128.44176578 181.86866423 -130.58727657 180.54146219 -133 179 C-131.21566676 184.6503886 -129.30256351 188.25385896 -125.109375 192.45703125 C-124.74328125 192.96621094 -124.3771875 193.47539062 -124 194 C-125 197 -125 197 -127.20996094 198.14794922 C-130.08684804 199.02652255 -132.64392565 199.404879 -135.640625 199.6328125 C-136.71183594 199.71660156 -137.78304687 199.80039062 -138.88671875 199.88671875 C-139.99660156 199.96535156 -141.10648437 200.04398438 -142.25 200.125 C-143.34441406 200.21136719 -144.43882812 200.29773438 -145.56640625 200.38671875 C-162.81976689 201.68846931 -162.81976689 201.68846931 -166.25 199.6875 C-166.8275 199.130625 -167.405 198.57375 -168 198 C-168.78375 197.54625 -169.5675 197.0925 -170.375 196.625 C-179.24707767 191.13276144 -185.30395553 182.95120721 -191.6875 174.875 C-192.15115967 174.28920166 -192.61481934 173.70340332 -193.0925293 173.09985352 C-195.90924652 169.50254523 -198.51275703 165.83280064 -201 162 C-201.74280915 166.37432058 -201.82042812 168.74705303 -199.34765625 172.5234375 C-197.38980289 174.87010884 -195.38988246 177.16898798 -193.35253906 179.44677734 C-190.950504 182.20521544 -188.72961288 185.10182839 -186.5 188 C-186.06703613 188.55196045 -185.63407227 189.1039209 -185.18798828 189.67260742 C-183.29783277 192.11800084 -181.98612767 194.04161699 -181 197 C-185.65908886 197.73289038 -190.32350676 198.38826413 -195 199 C-195.79019531 199.12503906 -196.58039063 199.25007812 -197.39453125 199.37890625 C-202.01267184 199.82096859 -204.37169524 198.2718704 -207.875 195.5625 C-209.25086198 194.37599882 -210.62602604 193.18868701 -212 192 C-212.66 191.67 -213.32 191.34 -214 191 C-214 192.98 -214 194.96 -214 197 C-224.55808656 196.22095672 -224.55808656 196.22095672 -229 194 C-229 193.34 -229 192.68 -229 192 C-229.86625 192.04125 -230.7325 192.0825 -231.625 192.125 C-235.12358468 191.99542279 -237.74551597 191.23980344 -241 190 C-241 189.34 -241 188.68 -241 188 C-241.66 188 -242.32 188 -243 188 C-243 187.01 -243 186.02 -243 185 C-242.030625 184.87625 -241.06125 184.7525 -240.0625 184.625 C-239.051875 184.41875 -238.04125 184.2125 -237 184 C-236.505 183.01 -236.505 183.01 -236 182 C-232.625 182.3125 -232.625 182.3125 -229 183 C-228.34 183.99 -227.68 184.98 -227 186 C-226.01 186 -225.02 186 -224 186 C-224.53410863 178.64748331 -225.13140916 171.32097997 -226 164 C-224.35 163.67 -222.7 163.34 -221 163 C-220.43438854 157.34388537 -222.28608722 153.77357872 -225 149 C-228.04386724 148.91773332 -230.07175348 149.02391783 -233 150 C-233.33 150.99 -233.66 151.98 -234 153 C-234 152.34 -234 151.68 -234 151 C-234.99 150.67 -235.98 150.34 -237 150 C-237.33 149.01 -237.66 148.02 -238 147 C-236.625 145.5 -236.625 145.5 -235 144 C-234.34 144 -233.68 144 -233 144 C-232.67708984 143.13761719 -232.67708984 143.13761719 -232.34765625 142.2578125 C-230.54668766 139.24053758 -228.32091556 137.8709275 -225.4375 135.875 C-218.09906491 130.62407989 -212.33746717 124.2662715 -207 117 C-203.83884224 118.36983503 -203.0072908 118.9890638 -201 122 C-200.47265625 123.90234375 -200.47265625 123.90234375 -200.0625 125.9375 C-199.27096922 129.29997183 -198.33944576 131.39061819 -196 134 C-195.278125 134.9075 -194.55625 135.815 -193.8125 136.75 C-192.9153125 137.86375 -192.9153125 137.86375 -192 139 C-190.35 138.67 -188.7 138.34 -187 138 C-186.566875 138.639375 -186.13375 139.27875 -185.6875 139.9375 C-184.08760823 142.26746003 -184.08760823 142.26746003 -181 143 C-180.505 140.03 -180.505 140.03 -180 137 C-180.99 136.67 -181.98 136.34 -183 136 C-183 135.34 -183 134.68 -183 134 C-183.66 134 -184.32 134 -185 134 C-185.33 131.36 -185.66 128.72 -186 126 C-186.66 126 -187.32 126 -188 126 C-188.495 121.545 -188.495 121.545 -189 117 C-188.01 117.33 -187.02 117.66 -186 118 C-185.67 117.34 -185.34 116.68 -185 116 C-183.68 116.33 -182.36 116.66 -181 117 C-181.37253906 116.30132812 -181.74507813 115.60265625 -182.12890625 114.8828125 C-182.60199219 113.97273438 -183.07507813 113.06265625 -183.5625 112.125 C-184.03816406 111.22007812 -184.51382813 110.31515625 -185.00390625 109.3828125 C-185.33261719 108.59648437 -185.66132813 107.81015625 -186 107 C-185.67 106.34 -185.34 105.68 -185 105 C-179.16424277 112.85252627 -173.39155765 120.71230681 -168.0390625 128.90625 C-166.54012877 131.18049428 -165.01844972 133.42292404 -163.4609375 135.65625 C-150.48020633 154.40114363 -150.48020633 154.40114363 -151 164 C-150.01 164 -149.02 164 -148 164 C-145.74073587 151.96696276 -149.43541449 139.76948298 -155 129 C-155.98997569 127.99007518 -156.98916086 126.98904207 -158 126 C-159.125 123 -159.125 123 -160 120 C-160.33 119.01 -160.66 118.02 -161 117 C-161.99 117 -162.98 117 -164 117 C-165.76615118 112.29026351 -166.48594831 107.96916636 -167 103 C-167.66 103 -168.32 103 -169 103 C-168.9375 100.6875 -168.9375 100.6875 -168 98 C-162.98258239 94.98954943 -159.80041278 94.57725724 -154 96 C-151.5625 97.0625 -151.5625 97.0625 -150 98 C-149.34 96.02 -148.68 94.04 -148 92 C-145.8125 91.625 -145.8125 91.625 -143 92 C-141.10025032 93.84577951 -139.62343022 95.89392836 -138 98 C-137.34 98 -136.68 98 -136 98 C-133.16092891 102.21281516 -131.85106803 104.76951233 -131.875 109.875 C-131.65910384 113.2830751 -131.30850686 114.64540148 -129.0390625 117.25390625 C-127.30762668 118.74294106 -125.55094637 120.20299741 -123.7734375 121.63671875 C-118.50872205 126.12284952 -114.23012755 131.77299515 -110.3046875 137.453125 C-107.03650359 141.06474518 -103.11626041 143.44053039 -99 146 C-99.4439209 145.3294458 -99.8878418 144.6588916 -100.34521484 143.96801758 C-102.35981133 140.91923344 -104.36746196 137.86593606 -106.375 134.8125 C-107.07367188 133.75740234 -107.77234375 132.70230469 -108.4921875 131.61523438 C-109.49765625 130.08286133 -109.49765625 130.08286133 -110.5234375 128.51953125 C-111.14138184 127.58214111 -111.75932617 126.64475098 -112.39599609 125.67895508 C-113.89871683 123.16915985 -115.00325907 120.744302 -116 118 C-115.01 118 -114.02 118 -113 118 C-113.56589844 117.11957031 -114.13179687 116.23914063 -114.71484375 115.33203125 C-115.45613116 114.15910813 -116.19699427 112.98591678 -116.9375 111.8125 C-117.31068359 111.23435547 -117.68386719 110.65621094 -118.06835938 110.06054688 C-120.15834341 106.72786962 -121.53461241 103.92255255 -122 100 C-121.525625 100.495 -121.05125 100.99 -120.5625 101.5 C-116.79641649 103.70453669 -113.26540621 103.24608113 -109 103 C-109.96673228 100.57051573 -110.54373264 99.26237785 -112.84765625 97.9375 C-113.94400391 97.4734375 -113.94400391 97.4734375 -115.0625 97 C-121.52129839 93.69720537 -125.04083772 87.8685455 -129 82 C-127.48273502 78.22388547 -125.25848293 76.2305492 -122.125 73.6875 C-121.26132812 72.96949219 -120.39765625 72.25148438 -119.5078125 71.51171875 C-117 70 -117 70 -115.0390625 69.984375 C-112.08446811 71.45601205 -109.76735641 73.43473446 -107.25 75.5625 C-106.26515625 76.38878906 -105.2803125 77.21507812 -104.265625 78.06640625 C-103.51796875 78.70449219 -102.7703125 79.34257812 -102 80 C-102 77.69 -102 75.38 -102 73 C-101.34 73 -100.68 73 -100 73 C-100 73.99 -100 74.98 -100 76 C-99.34 76 -98.68 76 -98 76 C-98 76.66 -98 77.32 -98 78 C-96.35 78.33 -94.7 78.66 -93 79 C-93 79.66 -93 80.32 -93 81 C-92.34 81 -91.68 81 -91 81 C-90.34 81.66 -89.68 82.32 -89 83 C-86.89179203 82.6814823 -86.89179203 82.6814823 -85 82 C-85.15597656 81.15695312 -85.31195313 80.31390625 -85.47265625 79.4453125 C-85.66730469 78.34960938 -85.86195313 77.25390625 -86.0625 76.125 C-86.25972656 75.03445313 -86.45695313 73.94390625 -86.66015625 72.8203125 C-87 70 -87 70 -86 68 C-85.95977609 65.6670134 -85.95679753 63.33293334 -86 61 C-86.66 61 -87.32 61 -88 61 C-88 60.34 -88 59.68 -88 59 C-88.66 59 -89.32 59 -90 59 C-90 57 -90 57 -88.4375 55.25 C-85.46854562 53.72745929 -84.01827921 54.18169328 -80.90991211 55.15820312 C-77.45862476 56.67936365 -74.83671542 59.11514725 -72.0625 61.625 C-71.47404297 62.140625 -70.88558594 62.65625 -70.27929688 63.1875 C-68.84372614 64.44800113 -67.42053922 65.72258278 -66 67 C-66 65.56809664 -66.35458878 64.15613833 -66.625 62.75 C-67.00222052 58.97779483 -66.7020011 57.30388448 -65 54 C-64.34 54 -63.68 54 -63 54 C-63.99 51.525 -63.99 51.525 -65 49 C-64.01 49 -63.02 49 -62 49 C-67.85068218 39.8583091 -74.83282495 35.54184377 -85 32 C-84.64213574 29.34487804 -84.22808193 28.21287647 -82.2421875 26.359375 C-62.55215733 12.97275383 -24.51356002 -8.17118667 0 0 Z M-46 33 C-47.78297869 38.40941902 -47.78297869 38.40941902 -47 44 C-44.03 44 -41.06 44 -38 44 C-38 42.02 -38 40.04 -38 38 C-38.99 37.67 -39.98 37.34 -41 37 C-41.6875 34.9375 -41.6875 34.9375 -42 33 C-43.32 33 -44.64 33 -46 33 Z " fill="#CF0B0C" transform="translate(523,235)"/>
<path d="M0 0 C3.0660032 1.04854655 3.95167795 1.91838429 5.6328125 4.7578125 C12 19.12565445 12 19.12565445 12 27 C7 25 7 25 -2 19 C-2 26.92 -2 34.84 -2 43 C-2.66 43 -3.32 43 -4 43 C-4.33 41.02 -4.66 39.04 -5 37 C-5.99 37 -6.98 37 -8 37 C-7.95875 38.051875 -7.9175 39.10375 -7.875 40.1875 C-7.99147875 43.74010173 -8.47208068 45.84866641 -10 49 C-10.33 49 -10.66 49 -11 49 C-11.1959375 47.94425781 -11.391875 46.88851562 -11.59375 45.80078125 C-14.46414987 31.27778642 -19.10773617 17.14039086 -26 4 C-24.948125 4.144375 -23.89625 4.28875 -22.8125 4.4375 C-18.96312778 4.90575995 -15.11050709 5.32190519 -11.25 5.6875 C-10.16203125 5.79449219 -9.0740625 5.90148437 -7.953125 6.01171875 C-4.93354056 5.99973627 -3.4582669 5.71035079 -1 4 C-0.19471111 1.94999129 -0.19471111 1.94999129 0 0 Z " fill="#F9F0ED" transform="translate(394,177)"/>
<path d="M0 0 C-0.66 0.66 -1.32 1.32 -2 2 C1.42094242 4.28062828 2.68187222 4.21925007 6.6875 4.125 C7.68136719 4.10695312 8.67523438 4.08890625 9.69921875 4.0703125 C10.45847656 4.04710937 11.21773438 4.02390625 12 4 C12 4.33 12 4.66 12 5 C11.06542969 5.20753906 10.13085938 5.41507813 9.16796875 5.62890625 C-6.7347956 9.30067054 -21.53805505 14.8945736 -35.97265625 22.49609375 C-39 24 -39 24 -41 24 C-41 23.34 -41 22.68 -41 22 C-40.01 22 -39.02 22 -38 22 C-37.67 20.02 -37.34 18.04 -37 16 C-37.99 15.34 -38.98 14.68 -40 14 C-39.10023438 13.67128906 -38.20046875 13.34257812 -37.2734375 13.00390625 C-35.97359832 12.52441231 -34.67415452 12.04384587 -33.375 11.5625 C-32.67874512 11.30460693 -31.98249023 11.04671387 -31.26513672 10.78100586 C-26.84385139 9.12314382 -22.46740855 7.38047111 -18.109375 5.5625 C-17.11760254 5.1492749 -16.12583008 4.7360498 -15.10400391 4.31030273 C-13.12947879 3.48324177 -11.15774231 2.64948917 -9.18896484 1.80883789 C-8.28355957 1.42977295 -7.3781543 1.05070801 -6.4453125 0.66015625 C-5.63594238 0.31605713 -4.82657227 -0.02804199 -3.99267578 -0.38256836 C-2 -1 -2 -1 0 0 Z " fill="#FAE9E5" transform="translate(492,231)"/>
<path d="M0 0 C0.66 0 1.32 0 2 0 C2.12117188 0.72445313 2.24234375 1.44890625 2.3671875 2.1953125 C3.24939579 7.28497573 4.16442347 12.14883346 6 17 C5.01 16.67 4.02 16.34 3 16 C3 17.98 3 19.96 3 22 C1.08210287 21.71653722 -0.83429183 21.4228972 -2.75 21.125 C-3.81734375 20.96257812 -4.8846875 20.80015625 -5.984375 20.6328125 C-8.67708871 20.06776118 -10.63572439 19.36577086 -13 18 C-11.7790076 12.91253168 -10.2946463 9.19318621 -7 5 C-6.01 4.67 -5.02 4.34 -4 4 C-3.319375 3.319375 -2.63875 2.63875 -1.9375 1.9375 C-1.298125 1.298125 -0.65875 0.65875 0 0 Z " fill="#CB0D0F" transform="translate(269,397)"/>
<path d="M0 0 C7.938812 3.67568674 10.09947073 10.14349964 12.984375 17.9765625 C14.76838314 23.28741751 15.09315271 27.41083711 15 33 C8.69386348 30.28183771 5.41632013 24.39528814 2.6875 18.3125 C0.45235311 12.36756574 0.19743504 6.29817763 0 0 Z " fill="#FAEAE6" transform="translate(283,387)"/>
<path d="M0 0 C4.75 0.875 4.75 0.875 7 2 C7.72693904 3.97888961 8.39816251 5.97954558 9 8 C9.33 6.68 9.66 5.36 10 4 C14.86896303 4.59619955 19.32790951 5.56976822 24 7 C22.23179061 12.30462817 19.60495255 14.93003163 15 18 C13.68 18 12.36 18 11 18 C11 17.34 11 16.68 11 16 C10.34 16 9.68 16 9 16 C9 16.66 9 17.32 9 18 C8.34 18 7.68 18 7 18 C6.67 18.66 6.34 19.32 6 20 C5.34 19.67 4.68 19.34 4 19 C3.57870563 16.7647993 3.26249821 14.5093596 3 12.25 C2.48138424 7.82324404 1.8615722 4.06443264 0 0 Z " fill="#DB7B79" transform="translate(454,197)"/>
<path d="M0 0 C6.6291777 0.23260273 10.66023196 2.15139059 16 6 C15.38640625 6.14308594 14.7728125 6.28617187 14.140625 6.43359375 C11.89792233 7.0270096 10.03970153 7.90730275 8 9 C8 9.66 8 10.32 8 11 C8.66 11 9.32 11 10 11 C10 11.66 10 12.32 10 13 C10.66 13 11.32 13 12 13 C13.12927757 20.52851711 13.12927757 20.52851711 12.46875 22.9375 C11.85789263 25.62527243 12.33869503 27.57298957 12.9375 30.25 C13.13214844 31.14203125 13.32679688 32.0340625 13.52734375 32.953125 C13.68332031 33.62859375 13.83929688 34.3040625 14 35 C11.03 35.495 11.03 35.495 8 36 C7.505 34.515 7.505 34.515 7 33 C6.34 33 5.68 33 5 33 C5.33 32.34 5.66 31.68 6 31 C7.98 31.99 9.96 32.98 12 34 C10.04878157 28.49067738 7.40833264 24.87270457 3.42578125 20.6015625 C2 19 2 19 2 18 C5.465 17.505 5.465 17.505 9 17 C7.76476205 13.29428614 6.75576101 13.09867124 3.4375 11.25 C0.97265625 9.69140625 0.97265625 9.69140625 -1 8 C-1.625 4.1875 -1.625 4.1875 -1 1 C-0.67 0.67 -0.34 0.34 0 0 Z " fill="#C21517" transform="translate(425,283)"/>
<path d="M0 0 C6.78082192 3.16438356 6.78082192 3.16438356 9 6 C9 6.66 9 7.32 9 8 C12.39914975 6.86695008 13.05254451 5.87481525 15 3 C15 3.99 15 4.98 15 6 C15.66 6 16.32 6 17 6 C17.95261487 10.76307437 18.08333357 15.1666528 18 20 C16.68 20.33 15.36 20.66 14 21 C14 20.34 14 19.68 14 19 C10.57440916 20.20358597 8.46741391 21.35892646 6 24 C5.73445313 22.77023438 5.46890625 21.54046875 5.1953125 20.2734375 C4.83871309 18.64058755 4.48193267 17.00777713 4.125 15.375 C3.95097656 14.56675781 3.77695312 13.75851563 3.59765625 12.92578125 C2.62929775 8.51437032 1.5300773 4.25940436 0 0 Z " fill="#FAF4F1" transform="translate(427,192)"/>
<path d="M0 0 C6.44286356 0.4258842 9.76445812 2.4474643 14.1796875 7.08984375 C13.8496875 8.40984375 13.5196875 9.72984375 13.1796875 11.08984375 C12.5196875 11.08984375 11.8596875 11.08984375 11.1796875 11.08984375 C11.39625 11.63253906 11.6128125 12.17523438 11.8359375 12.734375 C12.114375 13.44980469 12.3928125 14.16523438 12.6796875 14.90234375 C12.958125 15.61003906 13.2365625 16.31773437 13.5234375 17.046875 C14.1796875 19.08984375 14.1796875 19.08984375 14.1796875 22.08984375 C11.92061506 20.39251927 9.67292659 18.68288004 7.4296875 16.96484375 C6.79546875 16.49046875 6.16125 16.01609375 5.5078125 15.52734375 C1.477335 12.42051734 -1.34793735 9.56276673 -3.8203125 5.08984375 C-3.57958799 2.12090808 -3.21816111 0.15883628 0 0 Z " fill="#FAEBE7" transform="translate(321.8203125,224.91015625)"/>
<path d="M0 0 C2.6791308 0 4.50880431 0.09365035 7 1 C10.78434066 7.89290621 10.70987973 15.28351513 10 23 C8.98046875 25.92578125 8.98046875 25.92578125 8 28 C5 27 5 27 3.8671875 25.25 C0.1418353 16.80195722 -0.14495738 9.13231473 0 0 Z " fill="#FBEDEA" transform="translate(415,199)"/>
<path d="M0 0 C0.33 0.66 0.66 1.32 1 2 C0.34 2 -0.32 2 -1 2 C-1.5534764 4.07553648 -2 5.84365964 -2 8 C-1.484375 8.45375 -0.96875 8.9075 -0.4375 9.375 C0.036875 9.91125 0.51125 10.4475 1 11 C0.6875 13.1875 0.6875 13.1875 0 15 C-0.886875 14.154375 -1.77375 13.30875 -2.6875 12.4375 C-5.30551472 10.22476652 -5.30551472 10.22476652 -8.75 10.0625 C-11.1478805 10.8940473 -11.1478805 10.8940473 -13 13 C-13.64767793 15.57061311 -13.64767793 15.57061311 -14 18 C-13.34 18 -12.68 18 -12 18 C-11.34 19.32 -10.68 20.64 -10 22 C-13.51716303 22 -14.37121748 21.17554415 -17 19 C-16.02315384 24.81510775 -14.95974016 29.82045473 -12 35 C-11.33333333 36.33333333 -10.66666667 37.66666667 -10 39 C-11.98 39.495 -11.98 39.495 -14 40 C-14.495 42.475 -14.495 42.475 -15 45 C-13.68 45.33 -12.36 45.66 -11 46 C-14 47 -14 47 -16.26171875 46.00390625 C-17.06222656 45.52824219 -17.86273438 45.05257812 -18.6875 44.5625 C-19.49574219 44.08941406 -20.30398438 43.61632812 -21.13671875 43.12890625 C-21.75160156 42.75636719 -22.36648438 42.38382812 -23 42 C-22.360625 41.855625 -21.72125 41.71125 -21.0625 41.5625 C-19.02454854 41.18992819 -19.02454854 41.18992819 -18 40 C-17.855625 39.34 -17.71125 38.68 -17.5625 38 C-17.376875 37.34 -17.19125 36.68 -17 36 C-16.01 35.505 -16.01 35.505 -15 35 C-15.495 34.01 -15.99 33.02 -16.5 32 C-18.30103581 27.86522766 -18.23515871 24.46801547 -18 20 C-21.16115776 21.36983503 -21.9927092 21.9890638 -24 25 C-24.66 24.67 -25.32 24.34 -26 24 C-24.88266271 22.49428343 -23.75589965 20.99555708 -22.625 19.5 C-21.68527344 18.24703125 -21.68527344 18.24703125 -20.7265625 16.96875 C-20.15679687 16.3190625 -19.58703125 15.669375 -19 15 C-18.34 15 -17.68 15 -17 15 C-17 14.34 -17 13.68 -17 13 C-11.75951946 8.16980619 -6.0545599 3.76364534 0 0 Z " fill="#BD1F23" transform="translate(289,377)"/>
<path d="M0 0 C4.20093742 0.67120241 7.84726888 2.00544055 11.75 3.6875 C13.47476562 4.40486328 13.47476562 4.40486328 15.234375 5.13671875 C18 7 18 7 18.890625 10.20703125 C18.94476563 11.58955078 18.94476563 11.58955078 19 13 C18.34 13 17.68 13 17 13 C16.67 16.3 16.34 19.6 16 23 C12.37060663 19.51835185 9.30969186 15.93571155 6.3125 11.875 C5.54550781 10.84117187 4.77851563 9.80734375 3.98828125 8.7421875 C0 3.24165029 0 3.24165029 0 0 Z " fill="#C61114" transform="translate(441,276)"/>
<path d="M0 0 C2.475 0.99 2.475 0.99 5 2 C4.8453125 3.1446875 4.8453125 3.1446875 4.6875 4.3125 C4.790625 5.199375 4.89375 6.08625 5 7 C7.40858714 8.8624438 7.40858714 8.8624438 10 10 C9.34 11.32 8.68 12.64 8 14 C7.01 14 6.02 14 5 14 C5.33 14.99 5.66 15.98 6 17 C5.67 17.66 5.34 18.32 5 19 C-0.04969516 18.55443866 -2.47618687 16.44186399 -6 13 C-6 12.01 -6 11.02 -6 10 C-6.66 10 -7.32 10 -8 10 C-8.33 8.68 -8.66 7.36 -9 6 C-7.88625 5.566875 -6.7725 5.13375 -5.625 4.6875 C-1.82487666 3.30088881 -1.82487666 3.30088881 0 0 Z " fill="#FBF8F6" transform="translate(305,236)"/>
<path d="M0 0 C2.55263088 2.274694 3.84144815 4.43202693 5.1875 7.5625 C5.53167969 8.34753906 5.87585938 9.13257813 6.23046875 9.94140625 C7 12 7 12 7 14 C5.02 13.34 3.04 12.68 1 12 C-0.65 14.64 -2.3 17.28 -4 20 C-9.58187135 18.66520468 -9.58187135 18.66520468 -11.375 15.8125 C-12.11666499 12.47500756 -12.13365916 9.40830847 -12 6 C-5.9453125 5.8046875 -5.9453125 5.8046875 -4 6 C-3.34 6.66 -2.68 7.32 -2 8 C-0.3516367 6.24755753 -0.3516367 6.24755753 1 4 C0.78282648 1.79199472 0.78282648 1.79199472 0 0 Z " fill="#D25E5C" transform="translate(359,196)"/>
<path d="M0 0 C4.07312541 1.67483745 7.06833933 4.5486024 10.3125 7.4375 C16.02184391 12.4405176 21.93001482 17.0306954 28.11254883 21.43334961 C30.94617199 23.45692823 33.66066362 25.40546329 36 28 C33.29120665 29.35439668 30.99066732 29.06501451 28 29 C28.33 30.32 28.66 31.64 29 33 C25.39084602 29.48786629 22.08688222 25.81766569 18.875 21.9375 C14.15241752 16.28408259 9.24342447 10.84303394 4.21484375 5.4609375 C2 3 2 3 0 0 Z " fill="#F9DBD4" transform="translate(474,289)"/>
<path d="M0 0 C0.59683594 0.0721875 1.19367188 0.144375 1.80859375 0.21875 C10.54727161 1.1536457 19.22515832 1.09258332 28 1 C28 1.99 28 2.98 28 4 C23.38 4 18.76 4 14 4 C13.34 5.98 12.68 7.96 12 10 C13.98 10.66 15.96 11.32 18 12 C16.453125 13.2109375 16.453125 13.2109375 14 14 C11.39484836 12.99212459 9.17152464 11.96372907 6.75 10.625 C6.1003125 10.28210938 5.450625 9.93921875 4.78125 9.5859375 C3.17989869 8.73816328 1.58888556 7.87091321 0 7 C0 4.69 0 2.38 0 0 Z " fill="#C2191C" transform="translate(221,331)"/>
<path d="M0 0 C7.83276618 3.91638309 14.81793107 9.81793107 21 16 C17.43476181 15.38881631 14.33726069 14.37977501 11 13 C11.30035156 13.67546875 11.60070312 14.3509375 11.91015625 15.046875 C12.48056641 16.38492188 12.48056641 16.38492188 13.0625 17.75 C13.44535156 18.63171875 13.82820313 19.5134375 14.22265625 20.421875 C15.04600008 23.15256309 14.9773992 24.36901347 14 27 C13.74347656 26.34773438 13.48695313 25.69546875 13.22265625 25.0234375 C10.15428531 18.01887353 6.71297032 14.59780109 0 11 C0.99 13.97 1.98 16.94 3 20 C2.01 19.34 1.02 18.68 0 18 C0 17.34 0 16.68 0 16 C-0.66 16 -1.32 16 -2 16 C-2 13.69 -2 11.38 -2 9 C-0.02 9 1.96 9 4 9 C3.67 7.35 3.34 5.7 3 4 C2.34 4 1.68 4 1 4 C0.67 2.68 0.34 1.36 0 0 Z " fill="#BD1A1E" transform="translate(281,235)"/>
<path d="M0 0 C10.98275896 1.28641393 18.80270702 9.16294764 26 17 C24 18 24 18 21.4609375 17.21484375 C12.92816802 13.68292524 5.2591449 9.88871735 0 2 C0 1.34 0 0.68 0 0 Z " fill="#FAE3DE" transform="translate(265,290)"/>
<path d="M0 0 C4.29 0.33 8.58 0.66 13 1 C9.22697294 2.88651353 7.98375861 3.31450726 4 3 C3.34 2.67 2.68 2.34 2 2 C2.40992188 2.75023437 2.81984375 3.50046875 3.2421875 4.2734375 C7.39564841 12.16302593 10 19.0415075 10 28 C7 30.25 7 30.25 4 32 C2.99466333 30.37829621 1.99588093 28.75252763 1 27.125 C0.443125 26.22007812 -0.11375 25.31515625 -0.6875 24.3828125 C-2 22 -2 22 -2 20 C-1.34 20 -0.68 20 0 20 C0 20.99 0 21.98 0 23 C2.26906818 23.22644407 2.26906818 23.22644407 4.26171875 20.90625 C6.39286083 18.09072428 6.39286083 18.09072428 5.33203125 14.84375 C4.57986328 13.18859375 4.57986328 13.18859375 3.8125 11.5 C2.03781226 7.49173429 0.87071274 4.35356369 0 0 Z " fill="#C01619" transform="translate(367,180)"/>
<path d="M0 0 C11.59400534 7.35022593 23.58625423 19.71349351 28 33 C28.125 35.8125 28.125 35.8125 28 38 C25.92677345 35.92677345 25.3261026 34.61359726 24.25 31.9375 C20.59840596 23.22058838 20.59840596 23.22058838 14 17 C14 16.34 14 15.68 14 15 C13.43539063 14.73445313 12.87078125 14.46890625 12.2890625 14.1953125 C9.01013385 12.48310743 6.05829522 10.34944751 3.0234375 8.2421875 C0.53798505 6.7163692 -0.33057495 6.84248822 -3.125 7.5 C-3.74375 7.665 -4.3625 7.83 -5 8 C-5.3125 5.6875 -5.3125 5.6875 -5 3 C-2.5 1.1875 -2.5 1.1875 0 0 Z " fill="#F8D4CB" transform="translate(315,247)"/>
<path d="M0 0 C0.99 0 1.98 0 3 0 C3.268125 0.969375 3.53625 1.93875 3.8125 2.9375 C4.204375 3.948125 4.59625 4.95875 5 6 C5.99 6.33 6.98 6.66 8 7 C8 8.98 8 10.96 8 13 C6.125 14.0625 6.125 14.0625 4 15 C3.34 14.67 2.68 14.34 2 14 C2.33 15.216875 2.66 16.43375 3 17.6875 C4.37888565 23.7662494 4.17245366 29.80124915 4 36 C2.02 36.495 2.02 36.495 0 37 C-0.33 35.68 -0.66 34.36 -1 33 C0.32 33.66 1.64 34.32 3 35 C1.51999939 26.44538652 0.05964831 18.15906215 -3 10 C-2.34 10 -1.68 10 -1 10 C-0.67 6.7 -0.34 3.4 0 0 Z " fill="#D26162" transform="translate(295,385)"/>
<path d="M0 0 C2.64391635 2.64391635 3.45135119 3.54304974 4.625 6.8125 C4.86476563 7.45832031 5.10453125 8.10414063 5.3515625 8.76953125 C6.90809609 14.12363172 7.13230965 19.33318753 7.0625 24.875 C7.05798828 25.56335938 7.05347656 26.25171875 7.04882812 26.9609375 C7.03716336 28.64066335 7.01923271 30.32034375 7 32 C5 31 5 31 4.25 29.125 C2.47940018 26.1149803 0.13379754 25.36252067 -3 24 C-2.9175 24.86625 -2.835 25.7325 -2.75 26.625 C-3.0574031 30.77494188 -4.45970279 32.76689446 -7 36 C-7.33 36 -7.66 36 -8 36 C-8 31.38 -8 26.76 -8 22 C-7.34 22.99 -6.68 23.98 -6 25 C-5.67 24.484375 -5.34 23.96875 -5 23.4375 C-2.53770416 21.66772487 -1.74507002 21.92841118 1.1875 22.3125 C2.445625 22.539375 3.70375 22.76625 5 23 C4.67 18.38 4.34 13.76 4 9 C3.01 8.67 2.02 8.34 1 8 C0.01 8.99 -0.98 9.98 -2 11 C-1.34 7.37 -0.68 3.74 0 0 Z " fill="#F8D3CC" transform="translate(440,189)"/>
<path d="M0 0 C1.32 0.33 2.64 0.66 4 1 C3.01 1 2.02 1 1 1 C4.46340741 7.75804067 8.57847502 13.63887451 13.3125 19.5625 C14.28026367 20.78936523 14.28026367 20.78936523 15.26757812 22.04101562 C16.83937495 24.03195827 18.41684261 26.01808825 20 28 C16.17937987 28 15.64554836 27.02759344 12.9375 24.4375 C8.91016669 20.71996156 4.71686538 17.58539734 0.1640625 14.54296875 C-1.77936111 13.15731473 -3.37798022 11.74236318 -5 10 C-4.360625 9.71125 -3.72125 9.4225 -3.0625 9.125 C-0.84793921 8.17176549 -0.84793921 8.17176549 0 6 C0.039992 4.00039988 0.04346799 1.99952758 0 0 Z " fill="#F9DDD7" transform="translate(440,275)"/>
<path d="M0 0 C5.76930472 2.44758382 8.91327542 7.53017141 11.375 13.125 C12.03692992 16.16987762 12.14793963 18.89326783 12 22 C6.69834931 20.63671839 4.67583915 17.47275302 2 13 C-0.36228475 8.61289976 -0.16544217 4.88054398 0 0 Z " fill="#F8E3E0" transform="translate(272,396)"/>
<path d="M0 0 C7.14091965 1.16821497 13.24116579 7.66989705 17.5 13.1875 C19.45890326 15.99304788 20.97210002 18.71072006 22 22 C13.3465082 18.86710139 6.79764653 12.77381369 2 5 C0.625 2 0.625 2 0 0 Z " fill="#F8DCD4" transform="translate(308,276)"/>
<path d="M0 0 C9.11980003 6.26667824 19.17239527 14.23631155 23 25 C22.67 25.66 22.34 26.32 22 27 C13.52383148 20.02506024 4.88093245 12.00713788 0 2 C0 1.34 0 0.68 0 0 Z " fill="#F9DBD5" transform="translate(463,291)"/>
<path d="M0 0 C7.53301564 0.47081348 13.5915414 7.19676795 18.58984375 12.3203125 C20.32563408 14.38787439 21.29079391 16.39957768 22 19 C13.26830693 18.21313231 7.94244245 11.329171 2.375 5.0625 C0 2 0 2 0 0 Z " fill="#FAE2DB" transform="translate(281,283)"/>
<path d="M0 0 C0.66 0 1.32 0 2 0 C1.67708984 0.49459717 1.35417969 0.98919434 1.02148438 1.4987793 C-0.39658452 4.97108231 -0.31757933 8.32559663 -0.34375 12.01953125 C-0.3583728 12.79632736 -0.37299561 13.57312347 -0.38806152 14.37345886 C-0.4344629 16.85308709 -0.46869773 19.33263802 -0.5 21.8125 C-0.54137433 25.06929626 -0.59517405 28.32555148 -0.65625 31.58203125 C-0.6615271 32.32081009 -0.6668042 33.05958893 -0.67224121 33.820755 C-0.76196334 38.5516104 -1.51969578 42.50110138 -3 47 C-7 43 -7 43 -8.8125 40.875 C-11.65644107 38.43733622 -14.39005649 37.83306389 -18 37 C-14.91190305 35.23537317 -13.76687864 35 -10 35 C-10 35.66 -10 36.32 -10 37 C-8.515 36.505 -8.515 36.505 -7 36 C-6.01 36 -5.02 36 -4 36 C-3.92483154 34.52406372 -3.92483154 34.52406372 -3.84814453 33.01831055 C-3.65976319 29.36690398 -3.45938101 25.71623781 -3.25537109 22.06567383 C-3.16876113 20.48577192 -3.08540436 18.90568817 -3.00537109 17.32543945 C-2.88974709 15.05364182 -2.76242811 12.78275573 -2.6328125 10.51171875 C-2.59938751 9.80536789 -2.56596252 9.09901703 -2.53152466 8.3712616 C-2.31402382 4.77014294 -2.05014647 3.0752197 0 0 Z " fill="#B02425" transform="translate(518,250)"/>
<path d="M0 0 C4.23680777 0.24922399 6.4538651 0.5407502 9.75 3.3125 C10.4925 4.199375 11.235 5.08625 12 6 C12.61875 6.70125 13.2375 7.4025 13.875 8.125 C14.431875 9.053125 14.431875 9.053125 15 10 C14.67 10.99 14.34 11.98 14 13 C13.931009 15.06145107 13.91532273 17.12501401 13.9375 19.1875 C13.94652344 20.27417969 13.95554687 21.36085938 13.96484375 22.48046875 C13.97644531 23.31191406 13.98804688 24.14335937 14 25 C13.67 25 13.34 25 13 25 C13 21.37 13 17.74 13 14 C11.68 13.67 10.36 13.34 9 13 C4.76246926 10.14615277 1.44862496 7.54214829 0 2.5625 C0 1.716875 0 0.87125 0 0 Z " fill="#F5DEDA" transform="translate(500,287)"/>
<path d="M0 0 C4.08479098 0.35244878 6.01262449 2.70435793 8.75 5.5625 C9.94882812 6.80193359 9.94882812 6.80193359 11.171875 8.06640625 C11.77515625 8.70449219 12.3784375 9.34257812 13 10 C12.38125 10.144375 11.7625 10.28875 11.125 10.4375 C8.96741678 10.93152225 8.96741678 10.93152225 7 12 C7 14.31 7 16.62 7 19 C7.66 19 8.32 19 9 19 C9.33 21.31 9.66 23.62 10 26 C6.85080956 22.15553375 4.59538524 17.85782936 2.25 13.5 C1.82589844 12.74074219 1.40179688 11.98148437 0.96484375 11.19921875 C0.56910156 10.46316406 0.17335938 9.72710937 -0.234375 8.96875 C-0.77916504 7.97004883 -0.77916504 7.97004883 -1.33496094 6.95117188 C-2.15006426 4.55972335 -1.86818618 3.34120452 -1 1 C-0.67 0.67 -0.34 0.34 0 0 Z " fill="#BF1A19" transform="translate(328,342)"/>
<path d="M0 0 C0.44988281 0.37511719 0.89976562 0.75023437 1.36328125 1.13671875 C6.11913969 4.92043779 10.90350379 7.53007305 16.484375 9.921875 C18.70376929 10.87304398 20.85324819 11.89652944 23 13 C23 13.33 23 13.66 23 14 C19.04 14 15.08 14 11 14 C11 12.68 11 11.36 11 10 C10.34 10 9.68 10 9 10 C9 11.65 9 13.3 9 15 C9.66 15.33 10.32 15.66 11 16 C8 16 8 16 5.9375 14.5 C1.71178193 12.34218652 -2.33128186 12.57031267 -7 13 C-7.99 13.495 -7.99 13.495 -9 14 C-9 13.01 -9 12.02 -9 11 C-5.71480525 9.90493508 -3.26336585 9.90039392 0.1875 9.9375 C1.81751953 9.95103516 1.81751953 9.95103516 3.48046875 9.96484375 C4.31191406 9.97644531 5.14335937 9.98804688 6 10 C5.65213292 8.02463255 5.65213292 8.02463255 5 6 C4.34 5.67 3.68 5.34 3 5 C2.34 4.67 1.68 4.34 1 4 C0.375 1.9375 0.375 1.9375 0 0 Z " fill="#BD1A1E" transform="translate(267,295)"/>
<path d="M0 0 C0.99 0.33 1.98 0.66 3 1 C-13.82541794 14.09654153 -31.69129912 24.39967221 -52 31 C-52 30.34 -52 29.68 -52 29 C-49.35261084 27.5393715 -48.10551666 27 -45 27 C-45 26.34 -45 25.68 -45 25 C-39.555 24.01 -39.555 24.01 -34 23 C-34 22.34 -34 21.68 -34 21 C-32.85660156 20.44570312 -31.71320313 19.89140625 -30.53515625 19.3203125 C-29.04411537 18.58885848 -27.55323838 17.85707033 -26.0625 17.125 C-25.30775391 16.76019531 -24.55300781 16.39539063 -23.77539062 16.01953125 C-23.05673828 15.66503906 -22.33808594 15.31054688 -21.59765625 14.9453125 C-20.93258057 14.62062988 -20.26750488 14.29594727 -19.58227539 13.96142578 C-17.81950756 13.08247732 -17.81950756 13.08247732 -17 11 C-15.68 11 -14.36 11 -13 11 C-13 10.01 -13 9.02 -13 8 C-11.02 7.67 -9.04 7.34 -7 7 C-7 6.34 -7 5.68 -7 5 C-6.34 5 -5.68 5 -5 5 C-5 3.68 -5 2.36 -5 1 C-2.525 1.495 -2.525 1.495 0 2 C0 1.34 0 0.68 0 0 Z " fill="#AF2223" transform="translate(521,208)"/>
<path d="M0 0 C2.40072955 2.88087546 4.47291037 5.56404834 6 9 C6 7.35 6 5.7 6 4 C10.25209792 8.12324647 14.13635705 12.51282966 18 17 C17.34 15.02 16.68 13.04 16 11 C16.66 11 17.32 11 18 11 C19.38232443 12.62626404 20.71937515 14.2925002 22 16 C21.34 16.33 20.68 16.66 20 17 C20 17.99 20 18.98 20 20 C19.01 20.33 18.02 20.66 17 21 C16.34 20.67 15.68 20.34 15 20 C14.375 17.9375 14.375 17.9375 14 16 C12.68 15.67 11.36 15.34 10 15 C9.67 15.99 9.34 16.98 9 18 C7.87162591 16.41906946 6.74743482 14.83515284 5.625 13.25 C4.99851562 12.36828125 4.37203125 11.4865625 3.7265625 10.578125 C1.08665922 6.63618798 0 4.84292591 0 0 Z " fill="#BE2C2D" transform="translate(322,358)"/>
<path d="M0 0 C4.31501119 3.86317756 6.70956654 7.73528882 9.1875 12.9375 C9.52974609 13.62779297 9.87199219 14.31808594 10.22460938 15.02929688 C13.42575272 21.58697887 15.26499041 26.95550831 15.125 34.375 C15.10695313 35.62023437 15.08890625 36.86546875 15.0703125 38.1484375 C15.04710937 39.08945313 15.02390625 40.03046875 15 41 C13.21151535 37.77143681 12.33374214 34.63447954 11.4375 31.0625 C9.31809818 23.37256313 6.23498123 16.21417595 2.99780273 8.93383789 C2.61180908 8.06364014 2.22581543 7.19344238 1.828125 6.296875 C1.4765332 5.51666992 1.12494141 4.73646484 0.76269531 3.93261719 C0 2 0 2 0 0 Z " fill="#F8CFCA" transform="translate(360,195)"/>
<path d="M0 0 C5.75 1.75 5.75 1.75 8 4 C9.03402815 4.8840137 10.07618185 5.75858501 11.125 6.625 C12.07375 7.40875 13.0225 8.1925 14 9 C13.67 9.99 13.34 10.98 13 12 C12.34 12 11.68 12 11 12 C10.34 11.34 9.68 10.68 9 10 C8.67 10.99 8.34 11.98 8 13 C8.66 13 9.32 13 10 13 C10 13.99 10 14.98 10 16 C10.66 16 11.32 16 12 16 C12.33 17.98 12.66 19.96 13 22 C11.35 22.33 9.7 22.66 8 23 C8 22.34 8 21.68 8 21 C7.34 21 6.68 21 6 21 C6.33 20.34 6.66 19.68 7 19 C7.66 19 8.32 19 9 19 C8.2302804 17.6035522 7.45916631 16.20787301 6.6875 14.8125 C6.23246094 13.98878906 5.77742188 13.16507812 5.30859375 12.31640625 C4.33830028 10.59884198 3.30908764 8.91428057 2.25 7.25 C0.90114454 4.82206017 0.39094277 2.73659936 0 0 Z " fill="#C51215" transform="translate(476,297)"/>
<path d="M0 0 C6.38613361 2.18953153 9.72565906 5.08881064 12.8125 11.0625 C14.27489439 14.05478391 15 15.64171141 15 19 C9.36389953 17.63367261 6.34595715 13.43649134 3 9 C0 3.87096774 0 3.87096774 0 0 Z " fill="#FAE4DB" transform="translate(281,246)"/>
<path d="M0 0 C0.87398438 0.27263672 0.87398438 0.27263672 1.765625 0.55078125 C4.50400442 1.39037871 7.24987822 2.19970001 10 3 C10.89203125 3.26296875 11.7840625 3.5259375 12.703125 3.796875 C21.68379243 6.25527 30.75845769 7.12718767 40 8 C40.3690205 18.55808656 40.3690205 18.55808656 38 23 C37.67 23 37.34 23 37 23 C37 18.71 37 14.42 37 10 C33.37 10 29.74 10 26 10 C26 9.34 26 8.68 26 8 C25.443125 8.02320313 24.88625 8.04640625 24.3125 8.0703125 C16.24790183 8.26102935 10.23666217 6.69873844 3 3 C0.26427415 2.30092586 0.26427415 2.30092586 -2 2 C-1.34 1.34 -0.68 0.68 0 0 Z " fill="#B81C20" transform="translate(494,177)"/>
<path d="M0 0 C6.09265884 5.52147208 11.56417435 12.51166205 15 20 C14.01 20 13.02 20 12 20 C12.33 21.32 12.66 22.64 13 24 C0.66362715 12.43465046 0.66362715 12.43465046 -0.51171875 6.3515625 C-0.5 3.875 -0.5 3.875 0 0 Z " fill="#F9E0DA" transform="translate(321,396)"/>
<path d="M0 0 C0.33 6.6 0.66 13.2 1 20 C0.01 20 -0.98 20 -2 20 C-4.68099266 16.49408652 -5.49516338 13.34159496 -6 9 C-6.66 9 -7.32 9 -8 9 C-8.36794764 5.68847126 -8.29809215 4.39390748 -6.25 1.6875 C-4 0 -4 0 0 0 Z " fill="#C80B0C" transform="translate(283,386)"/>
<path d="M0 0 C2.3129482 2.3129482 2.49580975 3.47904875 3.125 6.625 C3.29257812 7.44226563 3.46015625 8.25953125 3.6328125 9.1015625 C3.81457031 10.04128906 3.81457031 10.04128906 4 11 C-0.75 12 -0.75 12 -3 12 C-3 12.99 -3 13.98 -3 15 C-2.34 15 -1.68 15 -1 15 C-1 15.66 -1 16.32 -1 17 C-0.319375 16.95875 0.36125 16.9175 1.0625 16.875 C4.59924168 17.02549965 7.63323033 17.94375853 11 19 C11 19.66 11 20.32 11 21 C11.99 21.33 12.98 21.66 14 22 C7.04976736 21.35346673 0.61822697 19.13972752 -6 17 C-6 16.34 -6 15.68 -6 15 C-6.99 14.67 -7.98 14.34 -9 14 C-9.042721 12.33388095 -9.04063832 10.66617115 -9 9 C-8 8 -8 8 -5.125 7.8125 C-2 8 -2 8 1 10 C0.67 6.7 0.34 3.4 0 0 Z " fill="#C1191D" transform="translate(283,408)"/>
<path d="M0 0 C2.25 0.1875 2.25 0.1875 5 1 C5.59425781 1.74507813 6.18851562 2.49015625 6.80078125 3.2578125 C9.24138763 6.30098422 11.80972524 8.36434825 14.9375 10.6875 C15.95714844 11.45449219 16.97679687 12.22148437 18.02734375 13.01171875 C20.86157378 15.06580225 20.86157378 15.06580225 23.81640625 16.08203125 C24.89728516 16.53642578 24.89728516 16.53642578 26 17 C26.33 17.99 26.66 18.98 27 20 C28.65 20.66 30.3 21.32 32 22 C32 18.04 32 14.08 32 10 C29.525 9.505 29.525 9.505 27 9 C27.33 8.01 27.66 7.02 28 6 C29.98 6.99 31.96 7.98 34 9 C34 13.95 34 18.9 34 24 C23.07843168 24 9.54764564 9.62173172 2.015625 2.09765625 C1.35046875 1.40542969 0.6853125 0.71320313 0 0 Z " fill="#B01F23" transform="translate(479,292)"/>
<path d="M0 0 C5.23435005 4.27293882 9.67106815 8.81580806 14 14 C13.01 14.33 12.02 14.66 11 15 C11.33 16.65 11.66 18.3 12 20 C9 22 9 22 6.58203125 21.84765625 C3.58714317 20.86446304 1.98390323 19.57821488 -0.3125 17.4375 C-1.35857422 16.47650391 -1.35857422 16.47650391 -2.42578125 15.49609375 C-2.94527344 15.00238281 -3.46476562 14.50867188 -4 14 C-1 14 -1 14 0.9375 14.5 C3.29419326 15.15706668 3.29419326 15.15706668 7 15 C8.36412773 12.06079241 8.36412773 12.06079241 6.875 9.625 C5.01198743 6.86471333 5.01198743 6.86471333 2.3125 4.3125 C1.549375 3.549375 0.78625 2.78625 0 2 C0 1.34 0 0.68 0 0 Z " fill="#C01619" transform="translate(315,263)"/>
<path d="M0 0 C0.99 0 1.98 0 3 0 C3 0.66 3 1.32 3 2 C2.01 2.495 2.01 2.495 1 3 C1.51363807 6.76667915 2.26269051 9.64120164 4 13 C4 13.99 4 14.98 4 16 C2.68 16 1.36 16 0 16 C-1.04625409 14.70264493 -2.04701223 13.36733028 -3 12 C-3.99 11.67 -4.98 11.34 -6 11 C-5.505 11.94875 -5.01 12.8975 -4.5 13.875 C-3 17 -3 17 -3 19 C-8.94 19 -14.88 19 -21 19 C-21.66 17.68 -22.32 16.36 -23 15 C-22.34 15 -21.68 15 -21 15 C-21 15.66 -21 16.32 -21 17 C-16.38 17 -11.76 17 -7 17 C-7 14.36 -7 11.72 -7 9 C-4.03 9.495 -4.03 9.495 -1 10 C-1.020625 8.72125 -1.04125 7.4425 -1.0625 6.125 C-1.125 2.25 -1.125 2.25 0 0 Z " fill="#B2252A" transform="translate(420,403)"/>
<path d="M0 0 C1.32 0.66 2.64 1.32 4 2 C3.01 2 2.02 2 1 2 C0.94592433 4.58361518 0.906293 7.16609255 0.875 9.75 C0.85824219 10.47960937 0.84148437 11.20921875 0.82421875 11.9609375 C0.78800223 15.94475471 1.11897268 18.53185588 3 22 C3.1953125 24.796875 3.1953125 24.796875 3.125 27.75 C3.10695312 28.73484375 3.08890625 29.7196875 3.0703125 30.734375 C3.03550781 31.85585938 3.03550781 31.85585938 3 33 C1.88625 33.433125 0.7725 33.86625 -0.375 34.3125 C-4.17512334 35.69911119 -4.17512334 35.69911119 -6 39 C-6.66 39 -7.32 39 -8 39 C-8.33 39.66 -8.66 40.32 -9 41 C-9.66 40.67 -10.32 40.34 -11 40 C-9.92598892 37.08482708 -9.22189824 35.22189824 -7 33 C-4.67451993 32.30643577 -2.34119555 31.63850788 0 31 C1.34294244 29.87280116 1.34294244 29.87280116 1.25 26.9375 C1.03714822 23.58508439 0.75813777 22.10732917 -0.5 19.1875 C-2.82705549 13.51874871 -2.85962026 7.68631331 -1 1.875 C-0.67 1.25625 -0.34 0.6375 0 0 Z " fill="#BF292A" transform="translate(218,351)"/>
<path d="M0 0 C0.66 0.99 1.32 1.98 2 3 C4.73008909 7.00227346 7.42501937 10.68983275 11 14 C10.38125 14.103125 9.7625 14.20625 9.125 14.3125 C6.63473516 14.87525373 6.63473516 14.87525373 5 18 C4.38253906 17.43410156 3.76507813 16.86820313 3.12890625 16.28515625 C-2.6716311 11.26155541 -6.27441316 9 -14 9 C-14 8.01 -14 7.02 -14 6 C-10.7 6 -7.4 6 -4 6 C-4 6.66 -4 7.32 -4 8 C-3.34 8 -2.68 8 -2 8 C-1.01 8.99 -0.02 9.98 1 11 C0.67 7.37 0.34 3.74 0 0 Z " fill="#BB1F22" transform="translate(317,227)"/>
<path d="M0 0 C0.33 0 0.66 0 1 0 C1.73956941 4.50091676 2.46971494 9.00322293 3.19116211 13.50708008 C3.43792308 15.03907469 3.68725598 16.57065735 3.93920898 18.10180664 C4.30088135 20.30251521 4.65328372 22.5045387 5.00390625 24.70703125 C5.11843643 25.39150833 5.23296661 26.07598541 5.35096741 26.78120422 C5.852337 29.9864163 6.04353938 31.86938186 5 35 C3.99932466 32.3335851 2.99940615 29.66689064 2 27 C1.55261475 25.80745605 1.55261475 25.80745605 1.09619141 24.59082031 C0.16480535 22.10350072 -0.76170415 19.61440512 -1.6875 17.125 C-2.00783203 16.27164063 -2.32816406 15.41828125 -2.65820312 14.5390625 C-2.96048828 13.724375 -3.26277344 12.9096875 -3.57421875 12.0703125 C-3.84838623 11.33570801 -4.12255371 10.60110352 -4.4050293 9.84423828 C-5 8 -5 8 -5 6 C-4.34 6 -3.68 6 -3 6 C-2.67 7.98 -2.34 9.96 -2 12 C-1.34 12 -0.68 12 0 12 C0 8.04 0 4.08 0 0 Z " fill="#F8CFC9" transform="translate(392,208)"/>
<path d="M0 0 C10.81782628 -0.56714817 10.81782628 -0.56714817 15 3 C19.22219898 7.10491567 19.6166563 10.34568045 20 16 C19.54625 15.319375 19.0925 14.63875 18.625 13.9375 C13.29432029 7.97221556 6.89754873 3.54517258 -1 2 C-0.67 1.34 -0.34 0.68 0 0 Z " fill="#F9D9D1" transform="translate(260,307)"/>
<path d="M0 0 C1.6484375 2.1953125 1.6484375 2.1953125 3.375 5.125 C5.98940187 9.42682898 8.65415566 13.24859877 12 17 C10.02 17 8.04 17 6 17 C6.33 16.01 6.66 15.02 7 14 C6.34 14 5.68 14 5 14 C5 13.01 5 12.02 5 11 C4.34 11 3.68 11 3 11 C3.33 12.98 3.66 14.96 4 17 C-5 6.33333333 -5 6.33333333 -5 1 C-3 0 -3 0 0 0 Z " fill="#BA1D20" transform="translate(418,297)"/>
<path d="M0 0 C2.375 0.25 2.375 0.25 5 1 C6.1875 3 6.1875 3 7 5 C7.66 5.33 8.32 5.66 9 6 C9.33 4.35 9.66 2.7 10 1 C12.875 0.875 12.875 0.875 16 1 C16.66 1.66 17.32 2.32 18 3 C21.61754103 3.38079379 23.88401212 2.84651134 27 1 C25.35 2.98 23.7 4.96 22 7 C18.40608886 5.66511872 15.24509304 4.03977277 12 2 C12.33 2.9075 12.66 3.815 13 4.75 C14 8 14 8 14 12 C11.80078125 12.33984375 11.80078125 12.33984375 9 12 C6.54296875 9.62890625 6.54296875 9.62890625 4.1875 6.5625 C3.39730469 5.55316406 2.60710937 4.54382813 1.79296875 3.50390625 C0 1 0 1 0 0 Z " fill="#B31F21" transform="translate(423,405)"/>
<path d="M0 0 C4.39184334 0.23739694 6.85831134 2.02813235 10 5 C11.3125 7.25 11.3125 7.25 12 9 C11.01 9.495 11.01 9.495 10 10 C9.443125 9.030625 8.88625 8.06125 8.3125 7.0625 C6.31964195 3.81008721 6.31964195 3.81008721 3.25 3.125 C2.5075 3.08375 1.765 3.0425 1 3 C0.67 5.31 0.34 7.62 0 10 C-0.680625 9.690625 -1.36125 9.38125 -2.0625 9.0625 C-5.42127242 7.84762487 -8.43841356 7.26382122 -12 7 C-12.99 7.66 -13.98 8.32 -15 9 C-17.1875 8.625 -17.1875 8.625 -19 8 C-16.31112557 5.46929465 -14.71683838 4.0896048 -11 3.625 C-8.01135086 3.99858114 -5.7158599 4.72194828 -3 6 C-2.87625 5.38125 -2.7525 4.7625 -2.625 4.125 C-2 2 -2 2 0 0 Z " fill="#C12224" transform="translate(374,324)"/>
<path d="M0 0 C4.90025997 3.85524776 8.76150273 7.6362389 12 13 C11.67 13.99 11.34 14.98 11 16 C10.96125079 17.66621616 10.9549714 19.33394172 11 21 C10.01 21 9.02 21 8 21 C8 19.68 8 18.36 8 17 C6.77893036 14.938416 6.77893036 14.938416 5.125 13 C1.60867895 8.6513131 -0.3176226 5.71720687 0 0 Z " fill="#F8E1DE" transform="translate(451,376)"/>
<path d="M0 0 C3.87330425 3.01256997 6.90022837 5.45049481 9 10 C9 11.32 9 12.64 9 14 C3.80795746 13.11723662 0.6016789 9.6322664 -3 6 C-5 3.0625 -5 3.0625 -6 1 C-4.35 1 -2.7 1 -1 1 C-1 1.99 -1 2.98 -1 4 C-0.67 2.68 -0.34 1.36 0 0 Z " fill="#FAE1DB" transform="translate(428,303)"/>
<path d="M0 0 C6.06751068 2.08570679 12.16610848 5.77034492 17 10 C17 10.66 17 11.32 17 12 C17.99 12.33 18.98 12.66 20 13 C19.01 13.33 18.02 13.66 17 14 C17.639375 14.61875 18.27875 15.2375 18.9375 15.875 C21 18 21 18 22 20 C21.39239518 22.3494053 20.72870472 24.68529088 20 27 C19.01 26.67 18.02 26.34 17 26 C17.66 26 18.32 26 19 26 C17.61865348 15.34389826 9.34992036 8.835704 1.43359375 2.27734375 C0.96050781 1.85582031 0.48742187 1.43429688 0 1 C0 0.67 0 0.34 0 0 Z " fill="#B32E33" transform="translate(312,252)"/>
<path d="M0 0 C7.46788009 -0.89614561 7.46788009 -0.89614561 10.86328125 1.08984375 C14.63801913 4.62105015 15.99771525 7.98857625 17 13 C10.57329773 11.71465955 7.27361999 7.60165905 3 3 C2.00448424 1.99553578 1.006211 0.99375018 0 0 Z " fill="#F9E8E5" transform="translate(307,255)"/>
<path d="M0 0 C1.32 0 2.64 0 4 0 C4.103125 0.639375 4.20625 1.27875 4.3125 1.9375 C4.539375 2.618125 4.76625 3.29875 5 4 C5.99 4.33 6.98 4.66 8 5 C8 6.98 8 8.96 8 11 C5.03 11 2.06 11 -1 11 C-2.13757948 6.44968209 -1.4283779 4.36915594 0 0 Z " fill="#DA7171" transform="translate(477,268)"/>
<path d="M0 0 C5.75 1.75 5.75 1.75 8 4 C8 4.99 8 5.98 8 7 C4.95016004 8.52491998 2.3576631 8.23562548 -1 8 C-2.9375 6.5 -2.9375 6.5 -4 5 C-3.34 7.64 -2.68 10.28 -2 13 C-2.99 12.67 -3.98 12.34 -5 12 C-6.60725635 8.78548731 -6.05748185 5.56387464 -6 2 C-4.02 1.67 -2.04 1.34 0 1 C0 0.67 0 0.34 0 0 Z " fill="#FBEBE6" transform="translate(406,331)"/>
<path d="M0 0 C3.68069887 1.53643852 5.98775204 3.78150945 8.75 6.625 C9.54921875 7.44226563 10.3484375 8.25953125 11.171875 9.1015625 C11.77515625 9.72804688 12.3784375 10.35453125 13 11 C12.34 11.66 11.68 12.32 11 13 C10.34 12.01 9.68 11.02 9 10 C6.44816596 8.79549696 6.44816596 8.79549696 4 8 C4.34444881 10.47266765 4.34444881 10.47266765 5 13 C5.66 13.33 6.32 13.66 7 14 C4 14 4 14 2.0625 12.35546875 C1.381875 11.64003906 0.70125 10.92460937 0 10.1875 C-0.680625 9.47980469 -1.36125 8.77210938 -2.0625 8.04296875 C-2.701875 7.36878906 -3.34125 6.69460938 -4 6 C-4.99665741 4.99666855 -5.99530157 3.99527939 -7 3 C-4.69 3.66 -2.38 4.32 0 5 C0.33 4.34 0.66 3.68 1 3 C0.67 2.01 0.34 1.02 0 0 Z " fill="#C1191D" transform="translate(472,289)"/>
<path d="M0 0 C3 1 3 1 4.28125 3.23046875 C8.67848114 13.89939174 12.19261175 24.43895621 10 36 C8.02 36.495 8.02 36.495 6 37 C5 35 5 35 4.5625 32.25 C4.0020159 29.01164742 3.1036298 26.09016343 2 23 C4.96865509 25.54456151 6.3619751 28.48994665 8 32 C8.64292428 22.57044396 5.50496209 13.64543376 1.8671875 5.05859375 C1.16941356 3.40216642 0.56838719 1.70516157 0 0 Z " fill="#BA2225" transform="translate(366,363)"/>
<path d="M0 0 C0.598125 0.226875 1.19625 0.45375 1.8125 0.6875 C1.4825 2.0075 1.1525 3.3275 0.8125 4.6875 C0.8125 4.0275 0.8125 3.3675 0.8125 2.6875 C-0.8375 3.0175 -2.4875 3.3475 -4.1875 3.6875 C-3.25135433 5.41740025 -2.31352042 7.14638696 -1.375 8.875 C-0.85292969 9.83792969 -0.33085937 10.80085938 0.20703125 11.79296875 C1.26806127 13.70592069 2.39064673 15.58612718 3.57421875 17.42578125 C3.98285156 18.17214844 4.39148438 18.91851562 4.8125 19.6875 C4.4825 20.3475 4.1525 21.0075 3.8125 21.6875 C1.85315817 20.06370295 -0.10500457 18.43852023 -2.0625 16.8125 C-2.61808594 16.35230469 -3.17367188 15.89210938 -3.74609375 15.41796875 C-5.96980832 13.56933857 -8.14150946 11.73349054 -10.1875 9.6875 C-9.1975 9.3575 -8.2075 9.0275 -7.1875 8.6875 C-7.1875 9.3475 -7.1875 10.0075 -7.1875 10.6875 C-6.5275 10.0275 -5.8675 9.3675 -5.1875 8.6875 C-5.208125 7.718125 -5.22875 6.74875 -5.25 5.75 C-5.1875 2.6875 -5.1875 2.6875 -3.9375 0.75 C-2.1875 -0.3125 -2.1875 -0.3125 0 0 Z " fill="#FADCD4" transform="translate(417.1875,294.3125)"/>
<path d="M0 0 C6.85479859 0.2492654 11.90844028 2.26202082 17 7 C17 9 17 11 17 13 C17.66 13 18.32 13 19 13 C18.67 13.66 18.34 14.32 18 15 C15.18267885 12.88133175 12.37200195 10.75402306 9.5625 8.625 C8.76005859 8.02171875 7.95761719 7.4184375 7.13085938 6.796875 C6.36708984 6.21679688 5.60332031 5.63671875 4.81640625 5.0390625 C4.10943604 4.50490723 3.40246582 3.97075195 2.67407227 3.42041016 C1 2 1 2 0 0 Z " fill="#F8DBD5" transform="translate(280,233)"/>
<path d="M0 0 C3.62503965 2.34803704 6.94705419 4.94079815 10 8 C10 8.66 10 9.32 10 10 C8.39536551 9.68991116 6.79130769 9.37683713 5.1875 9.0625 C4.29417969 8.88847656 3.40085937 8.71445313 2.48046875 8.53515625 C0 8 0 8 -3 7 C-2.67 5.35 -2.34 3.7 -2 2 C-3.65 1.67 -5.3 1.34 -7 1 C-7.680625 1.99 -7.680625 1.99 -8.375 3 C-8.91125 3.66 -9.4475 4.32 -10 5 C-10.66 5 -11.32 5 -12 5 C-9.68343634 -1.45328448 -6.48192398 -2.13221184 0 0 Z " fill="#F8E1DD" transform="translate(312,236)"/>
<path d="M0 0 C1.48280196 0.78483659 2.9611498 1.57809334 4.4375 2.375 C5.67306641 3.03628906 5.67306641 3.03628906 6.93359375 3.7109375 C9 5 9 5 10 7 C9.01 7.33 8.02 7.66 7 8 C7 7.34 7 6.68 7 6 C5.68 6 4.36 6 3 6 C3.14029419 8.1462026 3.28738164 10.29196218 3.4375 12.4375 C3.51871094 13.63246094 3.59992188 14.82742187 3.68359375 16.05859375 C3.67656114 18.88570244 3.67656114 18.88570244 5 20 C6.07822521 25.96351721 6.09585232 31.96130397 6 38 C5.67 38 5.34 38 5 38 C0.4308534 10.83596307 0.4308534 10.83596307 0 0 Z " fill="#B71F22" transform="translate(391,195)"/>
<path d="M0 0 C1.32 0 2.64 0 4 0 C3.67 0.99 3.34 1.98 3 3 C2.67 2.67 2.34 2.34 2 2 C2.27566896 7.37554473 4.49664382 10.6070933 7.52734375 14.8515625 C8.89296044 16.84384149 9.97720214 18.81605481 11 21 C8.14723863 23.93200474 5.34920216 26.64315404 2 29 C2 28.01 2 27.02 2 26 C2.99 25.34 3.98 24.68 5 24 C6.21284876 20.94570927 6.21284876 20.94570927 7 18 C6.34 17.54625 5.68 17.0925 5 16.625 C4.34 16.08875 3.68 15.5525 3 15 C3 14.34 3 13.68 3 13 C2.01 12.67 1.02 12.34 0 12 C-0.19401633 10.18818595 -0.38004375 8.37551468 -0.5625 6.5625 C-0.66691406 5.55316406 -0.77132813 4.54382813 -0.87890625 3.50390625 C-0.91886719 2.67761719 -0.95882813 1.85132813 -1 1 C-0.67 0.67 -0.34 0.34 0 0 Z " fill="#B32124" transform="translate(450,375)"/>
<path d="M0 0 C5.56138234 5.56138234 6.40397087 17.38816878 8 25 C8.32785937 26.3346899 8.65970873 27.66842547 9 29 C7.68 28.67 6.36 28.34 5 28 C4.67 22.72 4.34 17.44 4 12 C3.34 12 2.68 12 2 12 C2 11.34 2 10.68 2 10 C1.01 10.66 0.02 11.32 -1 12 C-1.73606499 15.56769552 -1.73606499 15.56769552 -2 19 C-4.83333333 14.75 -4.83333333 14.75 -5 12 C-3.1875 9.75 -3.1875 9.75 -1 8 C-0.34 8 0.32 8 1 8 C0.67 5.36 0.34 2.72 0 0 Z " fill="#BC262A" transform="translate(376,200)"/>
<path d="M0 0 C0.33 0 0.66 0 1 0 C1.14695312 0.75023437 1.29390625 1.50046875 1.4453125 2.2734375 C3.10530908 9.8483644 5.72237679 15.57075792 10 22 C10.33 22.66 10.66 23.32 11 24 C8.36 23.67 5.72 23.34 3 23 C2.34 20.69 1.68 18.38 1 16 C0.34 16 -0.32 16 -1 16 C-1 14.68 -1 13.36 -1 12 C-0.34 12 0.32 12 1 12 C0.835 11.505 0.67 11.01 0.5 10.5 C-0.20688818 6.96555911 -0.06005155 3.60309299 0 0 Z " fill="#C11C1E" transform="translate(283,394)"/>
<path d="M0 0 C4.83519772 5.87131152 8.37720737 10.2150921 9 18 C8.34 18 7.68 18 7 18 C7 17.34 7 16.68 7 16 C6.071875 15.7525 5.14375 15.505 4.1875 15.25 C0.82214391 13.93025251 -0.25915221 13.09484051 -2 10 C-2 9.34 -2 8.68 -2 8 C-1.01 8 -0.02 8 1 8 C0.67 5.36 0.34 2.72 0 0 Z " fill="#F9EBE9" transform="translate(406,353)"/>
<path d="M0 0 C5.10731246 2.91846426 9.80227606 5.9509622 13 11 C13 11.66 13 12.32 13 13 C7.08030998 11.24009216 1.58365008 8.60305395 -4 6 C-3.525625 5.566875 -3.05125 5.13375 -2.5625 4.6875 C-0.76313043 2.97690387 -0.76313043 2.97690387 0 0 Z " fill="#F9DDD9" transform="translate(448,271)"/>
<path d="M0 0 C0.33 0 0.66 0 1 0 C1.33 5.61 1.66 11.22 2 17 C4.60573797 12.65710338 5.44665863 10.75873581 6 6 C9.34019306 6.59646305 11.50470633 7.68294159 14 10 C14 10.99 14 11.98 14 13 C13.01 13 12.02 13 11 13 C11 12.01 11 11.02 11 10 C10.01 10 9.02 10 8 10 C7.01 12.97 6.02 15.94 5 19 C3.02 19.33 1.04 19.66 -1 20 C-0.67 13.4 -0.34 6.8 0 0 Z " fill="#B82024" transform="translate(431,207)"/>
<path d="M0 0 C0.99 0.33 1.98 0.66 3 1 C3 1.66 3 2.32 3 3 C3.99 3.33 4.98 3.66 6 4 C6.33 5.65 6.66 7.3 7 9 C10.12721795 8.75165948 13.25092917 8.47252658 16.375 8.1875 C17.70917969 8.08211914 17.70917969 8.08211914 19.0703125 7.97460938 C19.92109375 7.89404297 20.771875 7.81347656 21.6484375 7.73046875 C22.43395996 7.66239014 23.21948242 7.59431152 24.02880859 7.52416992 C26.3921737 7.12842605 26.3921737 7.12842605 28 4 C29 6 29 6 28 10 C22.06 10 16.12 10 10 10 C10 11.98 10 13.96 10 16 C7.47530701 14.7376535 7.34341224 13.80129523 6.25 11.25 C4.20688515 6.94707629 1.82556069 4.78222596 -2 2 C-1.34 1.34 -0.68 0.68 0 0 Z " fill="#F9D1CB" transform="translate(421,158)"/>
<path d="M0 0 C4.37653129 0.47620289 6.06538005 1.66899889 8.8125 5.0625 C9.41707031 5.79597656 10.02164062 6.52945312 10.64453125 7.28515625 C11.09183594 7.85105469 11.53914063 8.41695313 12 9 C11.01 9.495 11.01 9.495 10 10 C9.34444881 12.52733235 9.34444881 12.52733235 9 15 C7.66666667 13.33333333 6.33333333 11.66666667 5 10 C4.278125 9.175 3.55625 8.35 2.8125 7.5 C0.92410265 4.89531399 0.36131929 3.1615438 0 0 Z " fill="#F9E8E3" transform="translate(333,416)"/>
<path d="M0 0 C4.87298565 4.56842405 8.95546689 9.69409339 13 15 C13.54785156 15.69609375 14.09570312 16.3921875 14.66015625 17.109375 C17.24891308 20.71488591 18.34168442 23.14154684 17.9375 27.625 C17.29299451 31.20076606 16.30561729 34.60539503 15 38 C13.52768516 33.41446981 14.12133906 28.8416823 14.35546875 24.09375 C13.91679585 20.27584957 12.78658297 19.51359056 10 17 C9.32043742 15.33854975 8.65440375 13.67151965 8 12 C6.67829434 10.22976371 5.30007976 8.50063212 3.875 6.8125 C0 2.21352313 0 2.21352313 0 0 Z " fill="#AE262A" transform="translate(490,307)"/>
<path d="M0 0 C0.99 1.0209375 0.99 1.0209375 2 2.0625 C5.49468234 5.56725347 9.25130779 8.77221788 13 12 C12.01 12.66 11.02 13.32 10 14 C10 13.34 10 12.68 10 12 C7.03 11.505 7.03 11.505 4 11 C3.67 10.01 3.34 9.02 3 8 C3 8.99 3 9.98 3 11 C3.66 11.33 4.32 11.66 5 12 C5 12.66 5 13.32 5 14 C5.99 14 6.98 14 8 14 C8.33 16.31 8.66 18.62 9 21 C5.91941124 18.94627416 4.51967639 17.34328805 3 14 C2.48953125 13.40574219 1.9790625 12.81148438 1.453125 12.19921875 C-0.33433067 9.49401031 -0.31404304 7.95575695 -0.1875 4.75 C-0.16042969 3.85796875 -0.13335937 2.9659375 -0.10546875 2.046875 C-0.07066406 1.37140625 -0.03585937 0.6959375 0 0 Z " fill="#C1181B" transform="translate(283,287)"/>
<path d="M0 0 C1.13583456 3.71727674 0.66670026 5.47051709 -1 9 C-1.66 9 -2.32 9 -3 9 C-3.33 9.99 -3.66 10.98 -4 12 C-5.63671875 13.578125 -5.63671875 13.578125 -7.6875 15.25 C-12.00062357 18.90374317 -16.43906215 22.87812429 -19 28 C-21.31 28 -23.62 28 -26 28 C-23.77127809 25.6587874 -21.40235974 23.74228929 -18.8125 21.8125 C-10.67798765 15.5003297 -4.91460777 9.084578 0 0 Z " fill="#F6E1DC" transform="translate(407,265)"/>
<path d="M0 0 C0.99 0.495 0.99 0.495 2 1 C1.67 2.32 1.34 3.64 1 5 C1.66 5 2.32 5 3 5 C3.13277344 5.67546875 3.26554687 6.3509375 3.40234375 7.046875 C3.57894531 7.93890625 3.75554687 8.8309375 3.9375 9.75 C4.11152344 10.63171875 4.28554688 11.5134375 4.46484375 12.421875 C4.92368488 14.63235053 5.43336074 16.81512068 6 19 C6.99 19 7.98 19 9 19 C12.32519983 22.19730753 12.57141618 25.54272831 13 30 C6.39308013 23.95938755 0.47962253 15.68343568 -0.1796875 6.49609375 C-0.18649535 4.32098578 -0.13565415 2.17046636 0 0 Z " fill="#BB191E" transform="translate(353,333)"/>
<path d="M0 0 C4.875 1.875 4.875 1.875 6 3 C8.22035526 3.01682517 10.4413099 2.96246113 12.66015625 2.87890625 C13.65685585 2.84348976 13.65685585 2.84348976 14.6736908 2.80735779 C16.80350279 2.73056315 18.93296546 2.64660787 21.0625 2.5625 C22.50323791 2.50929506 23.94399305 2.45655457 25.38476562 2.40429688 C28.92339313 2.27492714 32.46174141 2.13913259 36 2 C28.44582341 7.03611773 14.85736547 7.26004362 6 6 C3.2521991 4.6085817 2.03596712 3.38499005 0 1 C0 0.67 0 0.34 0 0 Z " fill="#AF2B2B" transform="translate(353,432)"/>
<path d="M0 0 C0.33 0 0.66 0 1 0 C1.09796875 1.30453125 1.1959375 2.6090625 1.296875 3.953125 C2.22316017 15.15431423 3.30563825 26.03486694 9 36 C9.66 36.33 10.32 36.66 11 37 C11.33 36.34 11.66 35.68 12 35 C12 36.32 12 37.64 12 39 C10.68 38.67 9.36 38.34 8 38 C7.67 38.66 7.34 39.32 7 40 C0.03616727 23.83624146 0.03616727 23.83624146 0 16 C-0.00692871 15.36288086 -0.01385742 14.72576172 -0.02099609 14.06933594 C-0.0684741 9.37850869 -0.05179933 4.69071729 0 0 Z " fill="#B32A2B" transform="translate(412,190)"/>
<path d="M0 0 C0 0.33 0 0.66 0 1 C-6.15234375 1.09765625 -6.15234375 1.09765625 -8 1 C-8.495 0.505 -8.495 0.505 -9 0 C-10.57295783 -0.28619666 -12.1564284 -0.51510091 -13.7421875 -0.71875 C-14.72703125 -0.84636719 -15.711875 -0.97398437 -16.7265625 -1.10546875 C-17.76554687 -1.23566406 -18.80453125 -1.36585938 -19.875 -1.5 C-20.8753125 -1.63019531 -21.875625 -1.76039063 -22.90625 -1.89453125 C-29.59290383 -2.74980093 -36.28262836 -3.43676785 -43 -4 C-43 -4.33 -43 -4.66 -43 -5 C-28.6548703 -8.07395636 -13.87449485 -3.42056617 0 0 Z " fill="#BC2B2E" transform="translate(400,156)"/>
<path d="M0 0 C4.81938524 -0.23509196 8.46298506 0.54815522 13 2 C13.33 3.32 13.66 4.64 14 6 C15.3921875 6.0928125 15.3921875 6.0928125 16.8125 6.1875 C20 7 20 7 21.6875 9.375 C22.3371875 10.674375 22.3371875 10.674375 23 12 C24.58245275 13.75149165 24.58245275 13.75149165 26 15 C22.31610951 15 21.9880817 14.30983364 19.4375 11.8125 C14.3235265 7.1436316 8.54868885 4.18289628 2 2 C2.66 3.65 3.32 5.3 4 7 C3.01 7.495 3.01 7.495 2 8 C-0.1519437 4.77208445 -0.20086443 3.71599191 0 0 Z " fill="#B71F23" transform="translate(263,288)"/>
<path d="M0 0 C1.875 1.75 1.875 1.75 3 4 C2.6875 6.25 2.6875 6.25 2 8 C1.34 6.02 0.68 4.04 0 2 C-0.99 2 -1.98 2 -3 2 C-3 5.63 -3 9.26 -3 13 C-4.32 12.67 -5.64 12.34 -7 12 C-8.10647808 9.78704384 -8.19588368 8.45327301 -8.25 6 C-8.27578125 5.29875 -8.3015625 4.5975 -8.328125 3.875 C-8.21984375 3.25625 -8.1115625 2.6375 -8 2 C-4.77856724 -0.14762184 -3.7404533 -0.561068 0 0 Z " fill="#BF1517" transform="translate(298,383)"/>
<path d="M0 0 C7 5.44444444 7 5.44444444 9 10 C9.1875 13.3125 9.1875 13.3125 9 16 C5.61253488 14.87084496 4.62548634 13.77256927 2.3125 11.125 C1.68988281 10.42632812 1.06726563 9.72765625 0.42578125 9.0078125 C-1 7 -1 7 -1 4 C-0.67 4.66 -0.34 5.32 0 6 C0.66 6 1.32 6 2 6 C1.34 5.01 0.68 4.02 0 3 C0 2.01 0 1.02 0 0 Z " fill="#F9E3DA" transform="translate(322,262)"/>
<path d="M0 0 C5.33923059 0.59324784 8.0997349 4.90508298 11.3125 8.8125 C11.869375 9.534375 12.42625 10.25625 13 11 C12.67 11.66 12.34 12.32 12 13 C11.34 12.67 10.68 12.34 10 12 C9.01 13.485 9.01 13.485 8 15 C7.79375 14.29875 7.5875 13.5975 7.375 12.875 C5.80994701 9.60261647 3.95366823 7.8690771 1.2421875 5.52734375 C0 4 0 4 0 0 Z " fill="#F8E1DA" transform="translate(384,166)"/>
<path d="M0 0 C3.63 0.66 7.26 1.32 11 2 C12 7 12 7 12 10 C12.61875 10.226875 13.2375 10.45375 13.875 10.6875 C16.61410209 12.37929835 17.05024472 13.99244161 18 17 C13.62099431 13.30217297 9.31855625 9.52613402 5.0625 5.6875 C4.10472656 4.82511719 3.14695312 3.96273437 2.16015625 3.07421875 C1.44730469 2.38972656 0.73445313 1.70523438 0 1 C0 0.67 0 0.34 0 0 Z " fill="#BB1F22" transform="translate(312,243)"/>
<path d="M0 0 C3.73872495 1.69656426 5.6288741 3.61267729 8 7 C8 7.66 8 8.32 8 9 C6.35 9.33 4.7 9.66 3 10 C3 13.96 3 17.92 3 22 C-1.2585854 15.61212191 -0.10949904 7.40943497 0 0 Z " fill="#F8DAD4" transform="translate(413,191)"/>
<path d="M0 0 C4.15289097 3.67371124 7.23378258 8.22366459 10 13 C10 13.66 10 14.32 10 15 C4.01266684 13.18565662 -0.48551886 9.24729459 -3.9375 4.125 C-4.288125 3.42375 -4.63875 2.7225 -5 2 C-3.68 2.33 -2.36 2.66 -1 3 C-1 3.66 -1 4.32 -1 5 C-0.34 5 0.32 5 1 5 C0.67 3.35 0.34 1.7 0 0 Z " fill="#F8D8D0" transform="translate(414,366)"/>
</svg>
