<?xml version="1.0" standalone="no"?>
<!DOCTYPE svg PUBLIC "-//W3C//DTD SVG 20010904//EN"
 "http://www.w3.org/TR/2001/REC-SVG-20010904/DTD/svg10.dtd">
<svg version="1.0" xmlns="http://www.w3.org/2000/svg"
 width="736.000000pt" height="589.000000pt" viewBox="0 0 736.000000 589.000000"
 preserveAspectRatio="xMidYMid meet">

<g transform="translate(0.000000,589.000000) scale(0.100000,-0.100000)"
fill="#000000" stroke="none">
<path d="M3545 4366 c-124 -39 -145 -71 -145 -218 0 -60 -4 -108 -8 -108 -5 0
-17 7 -28 15 -27 20 -32 19 -36 -12 -2 -21 -10 -29 -35 -35 -56 -14 -85 -62
-95 -158 -3 -24 -4 -23 -45 18 -28 29 -50 42 -68 42 -26 0 -27 -2 -21 -40 6
-36 4 -40 -14 -40 -11 0 -38 11 -58 25 -53 35 -135 51 -189 36 -85 -23 -210
-138 -267 -245 -42 -80 -29 -163 38 -243 l27 -32 -78 25 c-43 13 -79 24 -81
24 -1 0 2 -8 7 -18 10 -19 5 -31 -44 -114 -17 -28 -20 -51 -20 -158 0 -142
-13 -180 -72 -209 -31 -15 -33 -19 -33 -75 l0 -58 96 -114 c53 -63 95 -116 93
-118 -4 -4 -103 5 -216 18 -42 5 -43 5 -43 -23 0 -28 9 -34 131 -98 131 -68
214 -127 203 -144 -9 -16 -68 -10 -109 11 -25 13 -60 20 -95 20 -48 1 -81 9
-142 34 -13 6 -18 -2 -27 -45 -12 -55 -8 -101 15 -162 28 -75 12 -117 -45
-117 -43 0 -101 -98 -117 -199 l-6 -39 43 9 c86 19 278 88 360 129 293 147
564 401 814 764 72 104 113 135 181 136 18 0 69 7 115 16 239 45 436 180 540
369 22 40 51 80 64 89 14 9 56 23 95 31 293 62 663 211 877 354 164 110 233
189 233 268 0 52 -9 63 -50 63 -64 0 -205 28 -292 59 -46 16 -114 32 -153 35
-38 3 -84 8 -102 12 -31 6 -32 5 -35 -30 l-3 -36 -42 55 c-45 57 -144 132
-162 120 -6 -3 -11 -15 -11 -26 0 -17 -8 -19 -90 -19 l-90 0 0 -32 0 -33 -26
45 c-55 97 -95 121 -219 131 -49 4 -139 19 -200 33 -122 29 -252 34 -320 12z
m329 -146 c41 -25 89 -92 130 -183 34 -73 63 -174 53 -183 -3 -3 -36 15 -74
40 -42 29 -69 42 -70 34 -2 -7 12 -113 30 -236 19 -122 31 -219 28 -216 -3 3
-29 67 -57 142 l-52 136 -7 -62 c-4 -34 -10 -64 -14 -67 -4 -2 -13 26 -20 63
-16 87 -72 254 -111 331 -32 64 -32 69 0 49 15 -10 27 -10 49 -1 24 8 34 8 48
-3 39 -30 113 -6 113 36 0 9 -20 35 -45 58 -25 23 -45 50 -45 61 0 26 5 26 44
1z m561 -277 c30 -76 49 -253 26 -253 -6 0 -11 5 -11 10 0 15 -50 60 -65 60
-7 0 -15 -18 -19 -39 -3 -22 -16 -52 -29 -66 l-22 -26 0 108 c-1 86 -5 120
-23 168 -12 32 -22 60 -22 61 0 1 9 0 20 -3 11 -3 33 -21 50 -39 16 -19 31
-34 33 -34 11 0 28 90 22 110 -16 50 14 6 40 -57z m-214 -67 c18 -39 23 -70
24 -131 0 -84 -9 -135 -24 -135 -13 0 -50 80 -67 143 -8 28 -17 95 -20 147
l-7 95 36 -34 c20 -18 46 -57 58 -85z m-547 -41 c57 -100 99 -269 76 -305 -8
-12 -10 -10 -10 9 0 31 -69 234 -110 325 -16 37 -30 71 -30 74 1 13 40 -43 74
-103z m934 11 c10 -36 -1 -93 -20 -113 -12 -11 -13 -8 -10 20 2 19 -3 62 -12
96 -20 80 -21 79 9 51 14 -13 29 -38 33 -54z m-1074 -2 c23 -22 19 -94 -5 -94
-19 0 -49 41 -49 68 0 45 24 56 54 26z m1188 5 l53 -12 -50 -43 c-27 -24 -50
-42 -51 -41 -4 5 -13 107 -9 107 2 0 28 -5 57 -11z m-1771 -150 c37 -26 36
-34 -2 -49 -27 -12 -33 -11 -51 7 -16 17 -18 24 -9 42 15 26 25 26 62 0z m347
-77 c19 -10 41 -30 50 -45 16 -27 16 -29 0 -41 -23 -17 -23 -34 2 -71 28 -43
25 -50 -12 -24 -108 75 -169 147 -155 183 9 22 73 21 115 -2z m-355 -115 c37
-23 52 -27 55 -18 9 26 42 51 70 51 29 0 68 -21 122 -68 43 -37 36 -47 -20
-27 -23 8 -44 15 -46 15 -2 0 49 -53 114 -117 123 -123 179 -204 188 -269 5
-34 1 -29 -34 41 -45 89 -121 172 -199 217 -27 15 -51 28 -55 28 -3 0 21 -26
54 -57 83 -79 118 -129 118 -169 0 -32 -2 -30 -122 90 -68 67 -185 171 -260
230 -76 60 -138 110 -138 112 0 10 109 -32 153 -59z m-76 -104 c35 -26 77 -91
89 -136 l7 -29 -29 15 c-59 31 -124 121 -124 172 0 18 8 15 57 -22z m-295
-240 c18 -16 25 -43 11 -43 -10 0 -53 42 -53 52 0 13 22 9 42 -9z m569 -62
c67 -45 149 -142 149 -177 0 -18 -53 13 -112 65 -42 37 -109 141 -90 141 5 0
28 -13 53 -29z m-269 -62 c66 -34 184 -169 147 -169 -41 0 -164 104 -198 168
-15 28 -3 29 51 1z m-126 -85 c64 -38 171 -137 154 -142 -22 -8 -178 78 -213
118 -64 70 -37 82 59 24z m-3 -164 c18 -16 39 -47 45 -68 18 -58 14 -71 -9
-35 -24 38 -98 89 -151 105 -48 14 -32 28 34 28 38 0 54 -6 81 -30z m-75 -306
c4 -25 -22 -38 -37 -20 -15 18 -3 48 18 44 9 -2 17 -13 19 -24z m-243 -234 c0
-8 -8 -16 -17 -18 -13 -2 -18 3 -18 18 0 15 5 20 18 18 9 -2 17 -10 17 -18z"/>
<path d="M5075 3543 c-182 -40 -342 -96 -495 -173 -120 -60 -198 -116 -200
-141 0 -4 27 -16 60 -28 59 -22 143 -90 169 -138 9 -19 -2 -16 -84 23 -96 44
-115 51 -115 36 0 -14 53 -93 124 -185 37 -48 65 -87 61 -87 -3 0 -35 25 -70
55 -108 91 -200 148 -242 149 -37 1 -38 0 -41 -35 -3 -34 0 -39 47 -68 28 -17
51 -34 51 -39 0 -14 -23 -32 -42 -32 -26 0 -22 -12 17 -50 32 -31 63 -95 52
-106 -18 -19 -120 74 -171 155 -28 44 -37 49 -54 28 -8 -9 0 -31 30 -82 59
-102 58 -104 -20 -41 -48 39 -75 55 -85 49 -52 -32 -126 -97 -120 -107 3 -6
26 -39 51 -72 33 -46 56 -67 93 -83 57 -26 65 -52 19 -71 -26 -11 -34 -10 -64
8 l-35 21 10 -26 c5 -14 25 -49 44 -78 39 -59 41 -65 20 -65 -8 0 -15 -2 -15
-5 0 -3 38 -64 85 -136 47 -72 84 -134 81 -136 -12 -13 -104 70 -171 154 -41
50 -93 106 -115 124 -36 29 -40 37 -40 79 0 40 -7 57 -49 116 -53 76 -90 101
-122 84 -11 -6 -19 -21 -19 -35 0 -29 -5 -30 -40 -10 -36 21 -58 18 -107 -12
l-45 -28 5 -51 c6 -62 42 -140 98 -214 23 -30 50 -74 61 -97 26 -59 58 -188
58 -237 l0 -40 -51 88 c-91 159 -328 503 -314 456 4 -14 14 -37 21 -52 27 -53
13 -51 -45 6 -52 52 -61 57 -80 47 -11 -7 -21 -14 -21 -16 0 -3 36 -77 80
-165 44 -88 78 -160 76 -160 -2 0 -32 33 -67 73 -66 76 -65 76 -43 -13 3 -14
-12 5 -33 42 -21 38 -53 89 -71 114 l-33 46 -30 -45 c-43 -65 -135 -147 -253
-226 -111 -75 -230 -194 -283 -282 -51 -86 -51 -85 9 -104 29 -10 85 -35 124
-57 67 -36 199 -76 302 -92 41 -6 43 -5 48 24 4 16 11 30 16 30 6 0 30 -18 55
-40 25 -22 53 -40 62 -40 29 0 185 21 190 25 7 7 -43 77 -122 172 -69 83 -74
92 -80 147 -7 67 -8 68 64 -39 30 -44 113 -140 184 -213 129 -131 131 -132
175 -132 106 1 311 39 345 64 15 11 12 17 -23 60 -44 52 -59 93 -43 109 7 7
24 -3 52 -31 40 -40 44 -42 103 -42 33 0 71 3 84 6 20 6 21 9 9 23 -44 51 -20
77 26 29 18 -19 40 -32 49 -30 15 3 14 8 -8 50 -26 49 -28 87 -5 87 8 0 35
-25 59 -55 46 -56 62 -66 87 -56 12 4 11 11 -6 40 -19 33 -19 56 0 56 5 0 25
-12 46 -26 l38 -26 85 85 85 85 -36 42 c-42 50 -67 99 -67 132 1 20 10 13 65
-45 l65 -69 85 78 c47 42 85 79 85 81 0 2 -32 40 -71 86 -76 87 -141 178 -134
185 4 4 22 -9 128 -98 20 -17 37 -29 37 -27 0 3 -11 25 -25 48 -14 24 -25 48
-25 52 0 4 32 -18 70 -49 64 -51 73 -56 95 -46 25 11 25 12 8 47 -21 43 -11
55 28 32 17 -9 38 -17 48 -17 34 0 80 69 101 152 10 40 9 50 -9 86 -25 50
-120 171 -223 284 -43 47 -78 89 -78 93 0 3 37 -25 83 -62 163 -136 263 -207
279 -197 4 3 8 38 8 78 0 73 0 74 -31 86 -33 14 -90 69 -101 99 -10 28 11 40
50 29 22 -6 43 -23 65 -54 30 -43 32 -44 40 -22 5 13 12 109 14 213 5 159 8
194 23 215 21 30 40 94 40 136 0 24 -5 33 -22 38 -25 6 -102 6 -133 -1z m-266
-358 c26 -13 50 -60 37 -72 -18 -18 -76 40 -76 77 0 13 6 13 39 -5z m-114
-254 c71 -54 179 -200 161 -218 -8 -8 -129 113 -170 171 -72 103 -71 108 9 47z
m-339 -386 c16 -13 17 -16 4 -25 -25 -17 -40 -11 -40 15 0 29 8 31 36 10z
m-476 -305 c27 -27 27 -80 1 -80 -24 0 -49 24 -57 55 -11 46 21 60 56 25z
m-886 -240 c21 -53 21 -91 1 -83 -22 8 -45 56 -45 93 0 44 25 38 44 -10z m519
9 c11 -18 2 -69 -12 -69 -19 0 -41 33 -41 61 0 25 4 30 21 27 12 -2 26 -10 32
-19z m-636 -21 c55 -59 103 -186 103 -274 l0 -38 -39 38 c-47 46 -88 133 -101
213 -18 105 -13 113 37 61z m1273 -7 c7 -13 7 -22 0 -26 -15 -9 -30 4 -30 26
0 25 16 25 30 0z m-1387 -77 c14 -14 35 -45 46 -67 24 -50 38 -127 24 -127
-41 0 -113 116 -113 182 0 45 8 47 43 12z m837 -103 c7 -13 7 -22 0 -26 -15
-9 -30 4 -30 26 0 25 16 25 30 0z"/>
</g>
</svg>
